# Blender 4.5.0
# www.blender.org
o Plane.009
v 4.058557 0.240451 1.626263
v 4.252490 0.240451 1.626263
v 4.058557 0.240451 0.887909
v 4.252490 0.240451 0.887909
v 4.058557 0.215438 0.887909
v 4.058557 0.215438 1.626263
v 4.252490 0.215438 1.626263
v 4.252490 0.215438 0.887909
v 4.495186 0.240451 1.622219
v 4.684581 0.240451 1.629729
v 4.524439 0.240451 0.884444
v 4.713834 0.240451 0.891953
v 4.524439 0.215438 0.884444
v 4.495186 0.215438 1.622219
v 4.684581 0.215438 1.629729
v 4.713834 0.215438 0.891953
v 4.260509 0.240451 1.614517
v 4.483862 0.240451 1.614517
v 4.260509 0.240451 0.876162
v 4.483862 0.240451 0.876162
v 4.260509 0.215438 0.876162
v 4.260509 0.215438 1.614517
v 4.483862 0.215438 1.614517
v 4.483862 0.215438 0.876162
v 4.718414 0.240451 1.626263
v 4.941768 0.240451 1.626263
v 4.718414 0.240451 0.887909
v 4.941768 0.240451 0.887909
v 4.718414 0.215438 0.887909
v 4.718414 0.215438 1.626263
v 4.941768 0.215438 1.626263
v 4.941768 0.215438 0.887909
v 4.947911 0.240451 1.643231
v 5.171264 0.240451 1.643231
v 4.947911 0.240451 0.904876
v 5.171264 0.240451 0.904876
v 4.947911 0.215438 0.904876
v 4.947911 0.215438 1.643231
v 5.171264 0.215438 1.643231
v 5.171264 0.215438 0.904876
v 5.177407 0.240451 1.626263
v 5.400761 0.240451 1.626263
v 5.177407 0.240451 0.887909
v 5.400761 0.240451 0.887909
v 5.177407 0.215438 0.887909
v 5.177407 0.215438 1.626263
v 5.400761 0.215438 1.626263
v 5.400761 0.215438 0.887909
v 5.404164 0.240451 1.626263
v 5.556860 0.240451 1.626263
v 5.404164 0.240451 0.887909
v 5.556860 0.240451 0.887909
v 5.404164 0.215438 0.887909
v 5.404164 0.215438 1.626263
v 5.556860 0.215438 1.626263
v 5.556860 0.215438 0.887909
v 5.569288 0.236596 1.626263
v 5.761264 0.157322 1.626263
v 5.569288 0.236596 0.887909
v 5.761264 0.157322 0.887909
v 5.559741 0.213476 0.887909
v 5.559741 0.213476 1.626263
v 5.751718 0.134202 1.626263
v 5.751718 0.134202 0.887909
v 5.765404 0.155612 1.636078
v 5.957380 0.076338 1.636078
v 5.765404 0.155612 0.897723
v 5.957380 0.076338 0.897723
v 5.755857 0.132493 0.897723
v 5.755857 0.132493 1.636078
v 5.947833 0.053219 1.636078
v 5.947833 0.053219 0.897723
v 5.963795 0.073689 1.621968
v 6.061533 0.033330 1.621968
v 5.963795 0.073689 0.883613
v 6.061533 0.033330 0.883613
v 5.954248 0.050570 0.883613
v 5.954248 0.050570 1.621968
v 6.051986 0.010210 1.621968
v 6.051986 0.010210 0.883613
v 4.044085 0.236596 0.887909
v 3.852109 0.157322 0.887909
v 4.044085 0.236596 1.626264
v 3.852108 0.157322 1.626263
v 4.053632 0.213476 1.626264
v 4.053632 0.213476 0.887909
v 3.861655 0.134202 0.887909
v 3.861655 0.134202 1.626263
v 3.847970 0.155612 0.875180
v 3.655993 0.076338 0.875180
v 3.847969 0.155612 1.613536
v 3.655993 0.076338 1.613535
v 3.857516 0.132493 1.613536
v 3.857516 0.132493 0.875180
v 3.665540 0.053219 0.875180
v 3.665540 0.053219 1.613535
v 3.649578 0.073689 0.887909
v 3.551841 0.033330 0.887909
v 3.649578 0.073689 1.626263
v 3.551840 0.033330 1.626263
v 3.659125 0.050570 1.626263
v 3.659125 0.050570 0.887909
v 3.561387 0.010210 0.887909
v 3.561387 0.010210 1.626263
v 3.519587 -0.055760 1.738165
v 3.632370 -0.055760 1.738165
v 3.519588 -0.055760 1.630343
v 3.632370 -0.055760 1.630343
v 3.519587 0.284490 1.738165
v 3.632370 0.284490 1.738165
v 3.519588 0.284490 1.630343
v 3.632370 0.284490 1.630343
v 3.973380 -0.066506 1.738165
v 4.086163 -0.066506 1.738165
v 3.973380 -0.066506 1.630343
v 4.086163 -0.066506 1.630343
v 3.973380 0.425062 1.738165
v 4.086163 0.425062 1.738165
v 3.973380 0.425062 1.630343
v 4.086163 0.425062 1.630343
v 3.565620 0.254100 1.718456
v 3.565620 0.185223 1.718456
v 3.565620 0.254100 1.650052
v 3.565620 0.185223 1.650052
v 4.057187 0.346515 1.718456
v 4.057187 0.277638 1.718456
v 4.057187 0.346515 1.650052
v 4.057187 0.277638 1.650052
v 3.811404 0.318439 1.650052
v 3.811404 0.249563 1.650052
v 3.811404 0.318439 1.718456
v 3.811404 0.249563 1.718456
v 3.688512 0.254100 1.650052
v 3.688512 0.185223 1.718456
v 3.688512 0.185223 1.650052
v 3.688512 0.254100 1.718456
v 3.934295 0.276468 1.650052
v 3.934295 0.345345 1.718456
v 3.934295 0.345345 1.650052
v 3.934295 0.276468 1.718456
v 6.088968 -0.055760 1.630343
v 5.976185 -0.055760 1.630343
v 6.088968 -0.055760 1.738165
v 5.976185 -0.055760 1.738165
v 6.088968 0.284490 1.630343
v 5.976185 0.284490 1.630343
v 6.088967 0.284490 1.738165
v 5.976185 0.284490 1.738165
v 5.635175 -0.066506 1.630343
v 5.522392 -0.066506 1.630343
v 5.635175 -0.066506 1.738165
v 5.522392 -0.066506 1.738165
v 5.635175 0.425062 1.630343
v 5.522392 0.425062 1.630343
v 5.635175 0.425062 1.738165
v 5.522392 0.425062 1.738165
v 6.042935 0.254100 1.650051
v 6.042935 0.185223 1.650051
v 6.042935 0.254100 1.718456
v 6.042935 0.185223 1.718456
v 5.551368 0.346515 1.650052
v 5.551368 0.277638 1.650052
v 5.551368 0.346515 1.718456
v 5.551368 0.277638 1.718456
v 5.797152 0.318439 1.718456
v 5.797152 0.249563 1.718456
v 5.797152 0.318439 1.650052
v 5.797152 0.249563 1.650052
v 5.920043 0.254100 1.718456
v 5.920043 0.185223 1.650051
v 5.920043 0.185223 1.718456
v 5.920043 0.254100 1.650051
v 5.674260 0.276468 1.718456
v 5.674260 0.345345 1.650052
v 5.674260 0.345345 1.718456
v 5.674260 0.276468 1.650052
v 4.043393 0.348270 1.722475
v 4.043393 0.275373 1.722475
v 4.043393 0.348270 1.646033
v 4.043393 0.275373 1.646032
v 5.557283 0.348270 1.722475
v 5.557283 0.275373 1.722475
v 5.557283 0.348270 1.646032
v 5.557283 0.275373 1.646032
v 4.043393 0.215792 1.503123
v 4.043393 0.140909 1.503123
v 4.043393 0.215792 1.426680
v 4.043393 0.140909 1.426680
v 5.557283 0.215792 1.503123
v 5.557283 0.140909 1.503123
v 5.557283 0.215792 1.426680
v 5.557283 0.140909 1.426680
v 3.572339 0.012050 1.503123
v 3.603000 -0.056269 1.503123
v 3.572339 0.012050 1.426680
v 3.603000 -0.056269 1.426680
v 4.042698 0.213615 1.503123
v 4.052125 0.145297 1.503123
v 4.042698 0.213615 1.426680
v 4.052125 0.145297 1.426680
v 6.047194 0.012050 1.503123
v 6.016533 -0.056269 1.503123
v 6.047194 0.012050 1.426680
v 6.016533 -0.056269 1.426680
v 5.558652 0.213615 1.503123
v 5.557214 0.145297 1.503123
v 5.558652 0.213615 1.426680
v 5.557214 0.145297 1.426680
v 3.519587 -0.055760 0.880337
v 3.632370 -0.055760 0.880337
v 3.519588 -0.055760 0.772515
v 3.632370 -0.055760 0.772515
v 3.519587 0.284490 0.880337
v 3.632370 0.284490 0.880337
v 3.519588 0.284490 0.772515
v 3.632370 0.284490 0.772515
v 3.973380 -0.066506 0.880337
v 4.086163 -0.066506 0.880337
v 3.973380 -0.066506 0.772515
v 4.086163 -0.066506 0.772515
v 3.973380 0.425062 0.880337
v 4.086163 0.425062 0.880337
v 3.973380 0.425062 0.772515
v 4.086163 0.425062 0.772515
v 3.565620 0.254100 0.860628
v 3.565620 0.185223 0.860628
v 3.565620 0.254100 0.792224
v 3.565620 0.185223 0.792224
v 4.057187 0.346515 0.860628
v 4.057187 0.277638 0.860628
v 4.057187 0.346515 0.792224
v 4.057187 0.277638 0.792224
v 3.811404 0.318439 0.792224
v 3.811404 0.249563 0.792224
v 3.811404 0.318439 0.860628
v 3.811404 0.249563 0.860628
v 3.688512 0.254100 0.792224
v 3.688512 0.185223 0.860628
v 3.688512 0.185223 0.792224
v 3.688512 0.254100 0.860628
v 3.934295 0.276468 0.792224
v 3.934295 0.345345 0.860628
v 3.934295 0.345345 0.792224
v 3.934295 0.276468 0.860628
v 6.088968 -0.055760 0.772515
v 5.976185 -0.055760 0.772515
v 6.088968 -0.055760 0.880337
v 5.976185 -0.055760 0.880337
v 6.088968 0.284490 0.772515
v 5.976185 0.284490 0.772515
v 6.088967 0.284490 0.880337
v 5.976185 0.284490 0.880337
v 5.635175 -0.066506 0.772515
v 5.522392 -0.066506 0.772515
v 5.635175 -0.066506 0.880337
v 5.522392 -0.066506 0.880337
v 5.635175 0.425062 0.772515
v 5.522392 0.425062 0.772515
v 5.635175 0.425062 0.880337
v 5.522392 0.425062 0.880337
v 6.042935 0.254100 0.792224
v 6.042935 0.185223 0.792224
v 6.042935 0.254100 0.860628
v 6.042935 0.185223 0.860628
v 5.551368 0.346515 0.792224
v 5.551368 0.277638 0.792224
v 5.551368 0.346515 0.860628
v 5.551368 0.277638 0.860628
v 5.797152 0.318439 0.860628
v 5.797152 0.249563 0.860628
v 5.797152 0.318439 0.792224
v 5.797152 0.249563 0.792224
v 5.920043 0.254100 0.860628
v 5.920043 0.185223 0.792224
v 5.920043 0.185223 0.860628
v 5.920043 0.254100 0.792224
v 5.674260 0.276468 0.860628
v 5.674260 0.345345 0.792224
v 5.674260 0.345345 0.860628
v 5.674260 0.276468 0.792224
v 4.043393 0.348270 0.864648
v 4.043393 0.275373 0.864648
v 4.043393 0.348270 0.788205
v 4.043393 0.275373 0.788205
v 5.557283 0.348270 0.864647
v 5.557283 0.275373 0.864647
v 5.557283 0.348270 0.788205
v 5.557283 0.275373 0.788205
v 4.043393 0.215792 1.150328
v 4.043393 0.140909 1.150328
v 4.043393 0.215792 1.073886
v 4.043393 0.140909 1.073886
v 5.557283 0.215792 1.150328
v 5.557283 0.140909 1.150328
v 5.557283 0.215792 1.073885
v 5.557283 0.140909 1.073885
v 3.572339 0.012050 1.150328
v 3.603000 -0.056269 1.150328
v 3.572339 0.012050 1.073886
v 3.603000 -0.056269 1.073886
v 4.042698 0.213615 1.150328
v 4.052125 0.145297 1.150328
v 4.042698 0.213615 1.073886
v 4.052125 0.145297 1.073886
v 6.047194 0.012050 1.150328
v 6.016533 -0.056269 1.150328
v 6.047194 0.012050 1.073886
v 6.016533 -0.056269 1.073886
v 5.558652 0.213615 1.150328
v 5.557214 0.145297 1.150328
v 5.558652 0.213615 1.073886
v 5.557214 0.145297 1.073886
vn -0.0000 1.0000 -0.0000
vn -0.0000 -1.0000 -0.0000
vn -0.0000 -0.0000 1.0000
vn 1.0000 -0.0000 -0.0000
vn -1.0000 -0.0000 -0.0000
vn -0.0000 -0.0000 -1.0000
vn -0.0396 -0.0000 0.9992
vn 0.9992 -0.0000 0.0396
vn -0.9992 -0.0000 -0.0396
vn 0.0396 -0.0000 -0.9992
vn 0.3817 0.9243 -0.0000
vn -0.3817 -0.9243 -0.0000
vn 0.9243 -0.3817 -0.0000
vn -0.9243 0.3817 -0.0000
vn -0.3817 0.9243 -0.0000
vn 0.3817 -0.9243 -0.0000
vn -0.9243 -0.3817 -0.0000
vn 0.9243 0.3817 -0.0000
vn -0.0095 1.0000 -0.0000
vn 0.2139 -0.9769 -0.0000
vn -0.4638 0.8859 -0.0000
vn 0.4638 -0.8859 -0.0000
vn 0.0095 -1.0000 -0.0000
vn -0.2139 0.9769 -0.0000
vn 0.0095 1.0000 -0.0000
vn -0.2139 -0.9769 -0.0000
vn 0.4638 0.8859 -0.0000
vn -0.4638 -0.8859 -0.0000
vn -0.0095 -1.0000 -0.0000
vn 0.2139 0.9769 -0.0000
vn -0.9123 -0.4095 -0.0000
vn 0.9906 0.1367 -0.0000
vn -0.3939 0.9192 -0.0000
vn 0.4095 -0.9123 -0.0000
vn -0.9123 0.4094 -0.0000
vn 0.9998 -0.0211 -0.0000
vn -0.3814 -0.9244 -0.0000
vn 0.4018 0.9157 -0.0000
vt 0.331096 0.000000
vt 0.668904 0.000000
vt 0.668904 1.000000
vt 0.331096 1.000000
vt 0.779551 1.224774
vt 0.741660 1.224774
vt 0.741660 1.062082
vt 0.779551 1.062082
vt 0.518755 0.163404
vt 0.484443 0.163404
vt 0.484443 0.007779
vt 0.518755 0.007779
vt 0.779551 0.863740
vt 0.741660 0.863740
vt 0.741660 0.676367
vt 0.779551 0.676367
vt 0.518755 0.532368
vt 0.484443 0.532368
vt 0.484443 0.353132
vt 0.518755 0.353132
vt 0.779551 1.055355
vt 0.741660 1.055355
vt 0.741660 0.867982
vt 0.779551 0.867982
vt 0.518755 0.349075
vt 0.484443 0.349075
vt 0.484443 0.169840
vt 0.518755 0.169840
vt 0.779551 0.671213
vt 0.741660 0.671213
vt 0.741660 0.483840
vt 0.779551 0.483840
vt 0.518755 0.716533
vt 0.484443 0.716533
vt 0.484443 0.537297
vt 0.518755 0.537297
vt 0.779551 0.478686
vt 0.741660 0.478686
vt 0.741660 0.291313
vt 0.779551 0.291313
vt 0.518755 0.900698
vt 0.484443 0.900698
vt 0.484443 0.721463
vt 0.518755 0.721463
vt 0.779551 0.286160
vt 0.741660 0.286160
vt 0.741660 0.098786
vt 0.779551 0.098786
vt 0.518755 1.084863
vt 0.484443 1.084863
vt 0.484443 0.905628
vt 0.518755 0.905628
vt 0.779551 0.095931
vt 0.741660 0.095931
vt 0.741660 -0.032168
vt 0.779551 -0.032168
vt 0.518755 1.210129
vt 0.484443 1.210129
vt 0.484443 1.087594
vt 0.518755 1.087594
vt 0.773711 -0.042593
vt 0.738689 -0.034584
vt 0.618601 -0.195635
vt 0.653623 -0.203644
vt 0.404718 1.374158
vt 0.373002 1.366497
vt 0.481752 1.212441
vt 0.513467 1.220102
vt 0.651034 -0.207116
vt 0.616012 -0.199108
vt 0.495923 -0.360159
vt 0.530945 -0.368168
vt 0.293623 1.531536
vt 0.261908 1.523875
vt 0.370658 1.369819
vt 0.402373 1.377480
vt 0.526933 -0.373549
vt 0.491911 -0.365540
vt 0.430772 -0.447533
vt 0.465794 -0.455542
vt 0.234624 1.615116
vt 0.202908 1.607455
vt 0.258274 1.529023
vt 0.289990 1.536684
vt 0.513467 -0.003835
vt 0.481752 0.003827
vt 0.373002 -0.150229
vt 0.404718 -0.157891
vt 0.653623 1.397966
vt 0.618601 1.389957
vt 0.738689 1.228907
vt 0.773711 1.236915
vt 0.402373 -0.161213
vt 0.370657 -0.153552
vt 0.261908 -0.307608
vt 0.293623 -0.315269
vt 0.530945 1.562490
vt 0.495923 1.554481
vt 0.616012 1.393430
vt 0.651034 1.401439
vt 0.289989 -0.320416
vt 0.258274 -0.312755
vt 0.202908 -0.391187
vt 0.234624 -0.398849
vt 0.465794 1.649865
vt 0.430772 1.641855
vt 0.491911 1.559862
vt 0.526933 1.567871
vt 0.555699 -0.602546
vt 0.555699 -0.701933
vt 0.475275 -0.701933
vt 0.475275 -0.602546
vt 0.348056 0.024357
vt 0.348056 0.985486
vt 0.632826 0.985486
vt 0.632826 0.024357
vt 0.555699 -0.702168
vt 0.555699 -0.801555
vt 0.475275 -0.801555
vt 0.475275 -0.702168
vt 0.594209 0.941242
vt 0.594210 0.046290
vt 0.865447 0.046290
vt 0.865447 0.941242
vt 0.424286 0.024357
vt 0.260778 0.024357
vt 0.260778 0.985486
vt 0.424286 0.985486
vt 0.109623 0.980565
vt 0.338158 0.980565
vt 0.338158 0.019435
vt 0.109623 0.019435
vt 0.387968 0.101057
vt 0.387968 0.908786
vt 0.555511 0.908786
vt 0.555511 0.101057
vt 0.362895 1.281372
vt 0.362896 -0.296447
vt 0.634133 -0.296447
vt 0.634133 1.281372
vt 0.589108 0.057875
vt 0.425561 0.057875
vt 0.425561 0.951968
vt 0.589108 0.951968
vt 0.507436 0.903698
vt 0.644690 0.903698
vt 0.644690 0.096302
vt 0.507436 0.096302
vt 0.765329 0.784954
vt 0.768947 1.084958
vt 0.555906 1.084958
vt 0.552288 0.784954
vt 0.607369 0.786159
vt 0.607369 1.058135
vt 0.414231 1.058135
vt 0.414231 0.786159
vt 0.391632 0.228275
vt 0.217010 0.228275
vt 0.217010 -0.085442
vt 0.391632 -0.085442
vt 0.593970 0.855709
vt 0.768591 0.855709
vt 0.768591 1.169426
vt 0.593970 1.169426
vt 0.593969 0.228275
vt 0.768591 0.228275
vt 0.768591 0.541992
vt 0.593970 0.541992
vt 0.391632 0.855709
vt 0.217010 0.855709
vt 0.217010 0.541992
vt 0.391632 0.541992
vt 0.863230 0.242207
vt 0.787783 0.514183
vt 0.594645 0.514183
vt 0.670091 0.242207
vt 0.483101 0.184948
vt 0.682108 0.484951
vt 0.469067 0.484951
vt 0.270060 0.184948
vt 0.483101 -0.115055
vt 0.270060 -0.115055
vt 0.391631 1.169426
vt 0.217010 1.169426
vt 0.866510 -0.029769
vt 0.673372 -0.029769
vt 0.593969 -0.085442
vt 0.768591 -0.085442
s 0
f 1/1/1 2/2/1 4/3/1 3/4/1
f 6/1/2 5/4/2 8/3/2 7/2/2
f 1/5/3 6/6/3 7/7/3 2/8/3
f 2/2/4 7/2/4 8/3/4 4/3/4
f 3/4/5 5/4/5 6/1/5 1/1/5
f 4/9/6 8/10/6 5/11/6 3/12/6
f 9/1/1 10/2/1 12/3/1 11/4/1
f 14/1/2 13/4/2 16/3/2 15/2/2
f 9/13/7 14/14/7 15/15/7 10/16/7
f 10/2/8 15/2/8 16/3/8 12/3/8
f 11/4/9 13/4/9 14/1/9 9/1/9
f 12/17/10 16/18/10 13/19/10 11/20/10
f 17/1/1 18/2/1 20/3/1 19/4/1
f 22/1/2 21/4/2 24/3/2 23/2/2
f 17/21/3 22/22/3 23/23/3 18/24/3
f 18/2/4 23/2/4 24/3/4 20/3/4
f 19/4/5 21/4/5 22/1/5 17/1/5
f 20/25/6 24/26/6 21/27/6 19/28/6
f 25/1/1 26/2/1 28/3/1 27/4/1
f 30/1/2 29/4/2 32/3/2 31/2/2
f 25/29/3 30/30/3 31/31/3 26/32/3
f 26/2/4 31/2/4 32/3/4 28/3/4
f 27/4/5 29/4/5 30/1/5 25/1/5
f 28/33/6 32/34/6 29/35/6 27/36/6
f 33/1/1 34/2/1 36/3/1 35/4/1
f 38/1/2 37/4/2 40/3/2 39/2/2
f 33/37/3 38/38/3 39/39/3 34/40/3
f 34/2/4 39/2/4 40/3/4 36/3/4
f 35/4/5 37/4/5 38/1/5 33/1/5
f 36/41/6 40/42/6 37/43/6 35/44/6
f 41/1/1 42/2/1 44/3/1 43/4/1
f 46/1/2 45/4/2 48/3/2 47/2/2
f 41/45/3 46/46/3 47/47/3 42/48/3
f 42/2/4 47/2/4 48/3/4 44/3/4
f 43/4/5 45/4/5 46/1/5 41/1/5
f 44/49/6 48/50/6 45/51/6 43/52/6
f 49/1/1 50/2/1 52/3/1 51/4/1
f 54/1/2 53/4/2 56/3/2 55/2/2
f 49/53/3 54/54/3 55/55/3 50/56/3
f 50/2/4 55/2/4 56/3/4 52/3/4
f 51/4/5 53/4/5 54/1/5 49/1/5
f 52/57/6 56/58/6 53/59/6 51/60/6
f 57/1/11 58/2/11 60/3/11 59/4/11
f 62/1/12 61/4/12 64/3/12 63/2/12
f 57/61/3 62/62/3 63/63/3 58/64/3
f 58/2/13 63/2/13 64/3/13 60/3/13
f 59/4/14 61/4/14 62/1/14 57/1/14
f 60/65/6 64/66/6 61/67/6 59/68/6
f 65/1/11 66/2/11 68/3/11 67/4/11
f 70/1/12 69/4/12 72/3/12 71/2/12
f 65/69/3 70/70/3 71/71/3 66/72/3
f 66/2/13 71/2/13 72/3/13 68/3/13
f 67/4/14 69/4/14 70/1/14 65/1/14
f 68/73/6 72/74/6 69/75/6 67/76/6
f 73/1/11 74/2/11 76/3/11 75/4/11
f 78/1/12 77/4/12 80/3/12 79/2/12
f 73/77/3 78/78/3 79/79/3 74/80/3
f 74/2/13 79/2/13 80/3/13 76/3/13
f 75/4/14 77/4/14 78/1/14 73/1/14
f 76/81/6 80/82/6 77/83/6 75/84/6
f 81/1/15 82/2/15 84/3/15 83/4/15
f 86/1/16 85/4/16 88/3/16 87/2/16
f 81/85/6 86/86/6 87/87/6 82/88/6
f 82/2/17 87/2/17 88/3/17 84/3/17
f 83/4/18 85/4/18 86/1/18 81/1/18
f 84/89/3 88/90/3 85/91/3 83/92/3
f 89/1/15 90/2/15 92/3/15 91/4/15
f 94/1/16 93/4/16 96/3/16 95/2/16
f 89/93/6 94/94/6 95/95/6 90/96/6
f 90/2/17 95/2/17 96/3/17 92/3/17
f 91/4/18 93/4/18 94/1/18 89/1/18
f 92/97/3 96/98/3 93/99/3 91/100/3
f 97/1/15 98/2/15 100/3/15 99/4/15
f 102/1/16 101/4/16 104/3/16 103/2/16
f 97/101/6 102/102/6 103/103/6 98/104/6
f 98/2/17 103/2/17 104/3/17 100/3/17
f 99/4/18 101/4/18 102/1/18 97/1/18
f 100/105/3 104/106/3 101/107/3 99/108/3
f 105/109/2 107/110/2 108/111/2 106/112/2
f 107/113/6 111/114/6 112/115/6 108/116/6
f 111/117/1 109/118/1 110/119/1 112/120/1
f 109/121/3 105/122/3 106/123/3 110/124/3
f 107/125/5 105/126/5 109/127/5 111/128/5
f 112/129/4 110/130/4 106/131/4 108/132/4
f 113/109/2 115/110/2 116/111/2 114/112/2
f 115/133/6 119/134/6 120/135/6 116/136/6
f 119/117/1 117/118/1 118/119/1 120/120/1
f 117/137/3 113/138/3 114/139/3 118/140/3
f 115/141/5 113/142/5 117/143/5 119/144/5
f 120/145/4 118/146/4 114/147/4 116/148/4
f 121/109/5 123/110/5 124/111/5 122/112/5
f 139/149/6 127/150/6 128/151/6 137/152/6
f 127/117/4 125/118/4 126/119/4 128/120/4
f 136/153/3 121/154/3 122/155/3 134/156/3
f 139/157/19 138/158/19 125/159/19 127/160/19
f 135/161/2 134/162/2 122/163/2 124/164/2
f 137/165/20 140/166/20 132/167/20 130/168/20
f 133/169/21 136/170/21 131/171/21 129/172/21
f 138/173/3 131/174/3 132/175/3 140/176/3
f 133/177/6 129/178/6 130/179/6 135/180/6
f 123/181/6 133/177/6 135/180/6 124/182/6
f 123/183/1 121/184/1 136/170/1 133/169/1
f 130/168/22 132/167/22 134/162/22 135/161/22
f 131/174/3 136/153/3 134/156/3 132/175/3
f 125/185/3 138/173/3 140/176/3 126/186/3
f 128/187/23 126/188/23 140/166/23 137/165/23
f 129/172/24 131/171/24 138/158/24 139/157/24
f 129/178/6 139/149/6 137/152/6 130/179/6
f 141/109/2 143/110/2 144/111/2 142/112/2
f 143/113/3 147/114/3 148/115/3 144/116/3
f 147/117/1 145/118/1 146/119/1 148/120/1
f 145/121/6 141/122/6 142/123/6 146/124/6
f 143/125/4 141/126/4 145/127/4 147/128/4
f 148/129/5 146/130/5 142/131/5 144/132/5
f 149/109/2 151/110/2 152/111/2 150/112/2
f 151/133/3 155/134/3 156/135/3 152/136/3
f 155/117/1 153/118/1 154/119/1 156/120/1
f 153/137/6 149/138/6 150/139/6 154/140/6
f 151/141/4 149/142/4 153/143/4 155/144/4
f 156/145/5 154/146/5 150/147/5 152/148/5
f 157/109/4 159/110/4 160/111/4 158/112/4
f 175/149/3 163/150/3 164/151/3 173/152/3
f 163/117/5 161/118/5 162/119/5 164/120/5
f 172/153/6 157/154/6 158/155/6 170/156/6
f 175/157/25 174/158/25 161/159/25 163/160/25
f 171/161/2 170/162/2 158/163/2 160/164/2
f 173/165/26 176/166/26 168/167/26 166/168/26
f 169/169/27 172/170/27 167/171/27 165/172/27
f 174/173/6 167/174/6 168/175/6 176/176/6
f 169/177/3 165/178/3 166/179/3 171/180/3
f 159/181/3 169/177/3 171/180/3 160/182/3
f 159/183/1 157/184/1 172/170/1 169/169/1
f 166/168/28 168/167/28 170/162/28 171/161/28
f 167/174/6 172/153/6 170/156/6 168/175/6
f 161/185/6 174/173/6 176/176/6 162/186/6
f 164/187/29 162/188/29 176/166/29 173/165/29
f 165/172/30 167/171/30 174/158/30 175/157/30
f 165/178/3 175/149/3 173/152/3 166/179/3
f 177/109/5 179/110/5 180/111/5 178/112/5
f 179/133/6 183/134/6 184/135/6 180/136/6
f 183/117/4 181/118/4 182/119/4 184/120/4
f 181/137/3 177/138/3 178/139/3 182/140/3
f 179/141/1 177/142/1 181/143/1 183/144/1
f 184/145/2 182/146/2 178/147/2 180/148/2
f 185/109/5 187/110/5 188/111/5 186/112/5
f 187/133/6 191/134/6 192/135/6 188/136/6
f 191/117/4 189/118/4 190/119/4 192/120/4
f 189/137/3 185/138/3 186/139/3 190/140/3
f 187/141/1 185/142/1 189/143/1 191/144/1
f 192/145/2 190/146/2 186/147/2 188/148/2
f 193/109/31 195/110/31 196/111/31 194/112/31
f 195/133/6 199/134/6 200/135/6 196/136/6
f 199/117/32 197/118/32 198/119/32 200/120/32
f 197/137/3 193/138/3 194/139/3 198/140/3
f 195/141/33 193/142/33 197/143/33 199/144/33
f 200/145/34 198/146/34 194/147/34 196/148/34
f 201/109/35 203/110/35 204/111/35 202/112/35
f 203/133/3 207/134/3 208/135/3 204/136/3
f 207/117/36 205/118/36 206/119/36 208/120/36
f 205/137/6 201/138/6 202/139/6 206/140/6
f 203/141/37 201/142/37 205/143/37 207/144/37
f 208/145/38 206/146/38 202/147/38 204/148/38
f 209/109/2 211/110/2 212/111/2 210/112/2
f 211/113/6 215/114/6 216/115/6 212/116/6
f 215/117/1 213/118/1 214/119/1 216/120/1
f 213/121/3 209/122/3 210/123/3 214/124/3
f 211/125/5 209/126/5 213/127/5 215/128/5
f 216/129/4 214/130/4 210/131/4 212/132/4
f 217/109/2 219/110/2 220/111/2 218/112/2
f 219/133/6 223/134/6 224/135/6 220/136/6
f 223/117/1 221/118/1 222/119/1 224/120/1
f 221/137/3 217/138/3 218/139/3 222/140/3
f 219/141/5 217/142/5 221/143/5 223/144/5
f 224/145/4 222/146/4 218/147/4 220/148/4
f 225/109/5 227/110/5 228/111/5 226/112/5
f 243/149/6 231/150/6 232/151/6 241/152/6
f 231/117/4 229/118/4 230/119/4 232/120/4
f 240/153/3 225/154/3 226/155/3 238/156/3
f 243/157/19 242/158/19 229/159/19 231/160/19
f 239/161/2 238/162/2 226/163/2 228/164/2
f 241/165/20 244/166/20 236/167/20 234/168/20
f 237/169/21 240/170/21 235/171/21 233/172/21
f 242/173/3 235/174/3 236/175/3 244/176/3
f 237/177/6 233/178/6 234/179/6 239/180/6
f 227/181/6 237/177/6 239/180/6 228/182/6
f 227/183/1 225/184/1 240/170/1 237/169/1
f 234/168/22 236/167/22 238/162/22 239/161/22
f 235/174/3 240/153/3 238/156/3 236/175/3
f 229/185/3 242/173/3 244/176/3 230/186/3
f 232/187/23 230/188/23 244/166/23 241/165/23
f 233/172/24 235/171/24 242/158/24 243/157/24
f 233/178/6 243/149/6 241/152/6 234/179/6
f 245/109/2 247/110/2 248/111/2 246/112/2
f 247/113/3 251/114/3 252/115/3 248/116/3
f 251/117/1 249/118/1 250/119/1 252/120/1
f 249/121/6 245/122/6 246/123/6 250/124/6
f 247/125/4 245/126/4 249/127/4 251/128/4
f 252/129/5 250/130/5 246/131/5 248/132/5
f 253/109/2 255/110/2 256/111/2 254/112/2
f 255/133/3 259/134/3 260/135/3 256/136/3
f 259/117/1 257/118/1 258/119/1 260/120/1
f 257/137/6 253/138/6 254/139/6 258/140/6
f 255/141/4 253/142/4 257/143/4 259/144/4
f 260/145/5 258/146/5 254/147/5 256/148/5
f 261/109/4 263/110/4 264/111/4 262/112/4
f 279/149/3 267/150/3 268/151/3 277/152/3
f 267/117/5 265/118/5 266/119/5 268/120/5
f 276/153/6 261/154/6 262/155/6 274/156/6
f 279/157/25 278/158/25 265/159/25 267/160/25
f 275/161/2 274/162/2 262/163/2 264/164/2
f 277/165/26 280/166/26 272/167/26 270/168/26
f 273/169/27 276/170/27 271/171/27 269/172/27
f 278/173/6 271/174/6 272/175/6 280/176/6
f 273/177/3 269/178/3 270/179/3 275/180/3
f 263/181/3 273/177/3 275/180/3 264/182/3
f 263/183/1 261/184/1 276/170/1 273/169/1
f 270/168/28 272/167/28 274/162/28 275/161/28
f 271/174/6 276/153/6 274/156/6 272/175/6
f 265/185/6 278/173/6 280/176/6 266/186/6
f 268/187/29 266/188/29 280/166/29 277/165/29
f 269/172/30 271/171/30 278/158/30 279/157/30
f 269/178/3 279/149/3 277/152/3 270/179/3
f 281/109/5 283/110/5 284/111/5 282/112/5
f 283/133/6 287/134/6 288/135/6 284/136/6
f 287/117/4 285/118/4 286/119/4 288/120/4
f 285/137/3 281/138/3 282/139/3 286/140/3
f 283/141/1 281/142/1 285/143/1 287/144/1
f 288/145/2 286/146/2 282/147/2 284/148/2
f 289/109/5 291/110/5 292/111/5 290/112/5
f 291/133/6 295/134/6 296/135/6 292/136/6
f 295/117/4 293/118/4 294/119/4 296/120/4
f 293/137/3 289/138/3 290/139/3 294/140/3
f 291/141/1 289/142/1 293/143/1 295/144/1
f 296/145/2 294/146/2 290/147/2 292/148/2
f 297/109/31 299/110/31 300/111/31 298/112/31
f 299/133/6 303/134/6 304/135/6 300/136/6
f 303/117/32 301/118/32 302/119/32 304/120/32
f 301/137/3 297/138/3 298/139/3 302/140/3
f 299/141/33 297/142/33 301/143/33 303/144/33
f 304/145/34 302/146/34 298/147/34 300/148/34
f 305/109/35 307/110/35 308/111/35 306/112/35
f 307/133/3 311/134/3 312/135/3 308/136/3
f 311/117/36 309/118/36 310/119/36 312/120/36
f 309/137/6 305/138/6 306/139/6 310/140/6
f 307/141/37 305/142/37 309/143/37 311/144/37
f 312/145/38 310/146/38 306/147/38 308/148/38
