# Blender 4.5.0
# www.blender.org
o GianTreeFolliage.001
v 7.712727 4.809820 -2.606887
v 12.225178 3.987270 -1.276119
v 6.399420 5.025819 1.979868
v 10.911871 4.203269 3.310635
v 4.405922 3.824571 -2.398254
v 8.071457 1.693556 -0.199990
v 2.982650 5.674609 1.768447
v 6.648185 3.543593 3.966712
v 2.507131 3.457876 -2.268282
v 4.022881 1.292524 -0.157460
v 1.889757 5.547700 0.318859
v 3.405506 3.382349 2.429680
v -0.084429 5.642313 -2.579544
v 1.541752 5.327073 1.899954
v -4.493796 6.432164 -0.923236
v -2.867615 6.116924 3.556261
v 7.709167 4.790139 -2.606980
v 12.221618 3.967590 -1.276212
v 6.395860 5.006139 1.979775
v 10.908311 4.183589 3.310543
v 4.394570 3.808436 -2.394968
v 8.060105 1.677421 -0.196703
v 2.971298 5.658473 1.771734
v 6.636833 3.527458 3.969998
v 2.489628 3.448743 -2.265081
v 4.005378 1.283392 -0.154260
v 1.872254 5.538568 0.322059
v 3.388003 3.373216 2.432881
v -0.087989 5.622633 -2.579637
v 1.538192 5.307392 1.899861
v -4.497356 6.412484 -0.923329
v -2.871175 6.097244 3.556168
vn 0.1780 0.9840 0.0046
vn 0.5676 0.8068 -0.1643
vn 0.8752 0.4566 -0.1600
vn -0.1780 -0.9840 -0.0046
vn -0.5676 -0.8068 0.1643
vn -0.8752 -0.4566 0.1600
vn -0.9448 0.1722 -0.2786
vn 0.2750 -0.0452 -0.9604
vn 0.9448 -0.1722 0.2786
vn -0.2750 0.0452 0.9604
vn -0.7675 0.4462 -0.4603
vn 0.2980 -0.3874 -0.8724
vn 0.7675 -0.4462 0.4603
vn -0.2980 0.3874 0.8724
vn -0.4481 0.6401 -0.6240
vn 0.1825 -0.6178 -0.7648
vn 0.4481 -0.6401 0.6240
vn -0.1825 0.6178 0.7648
vn -0.3405 0.0660 -0.9379
vn 0.9232 -0.1654 -0.3468
vn 0.3405 -0.0660 0.9379
vn -0.9232 0.1654 0.3468
vt 0.000000 0.000000
vt 0.000000 1.000000
vt 1.000000 1.000000
vt 1.000000 0.000000
vt 0.013664 0.011711
vt 0.026367 0.011711
vt 0.026367 0.024414
vt 0.013664 0.024414
vt 0.039070 0.011711
vt 0.039070 0.024414
vt 0.035364 0.024414
vt 0.035364 0.033411
vt 0.026367 0.033411
vt 0.026367 0.037117
vt 0.013664 0.037117
vt 0.013664 0.024414
s 0
f 1/1/1 3/2/1 4/3/1 2/4/1
f 5/1/2 7/2/2 8/3/2 6/4/2
f 9/1/3 11/2/3 12/3/3 10/4/3
f 13/1/1 15/2/1 16/3/1 14/4/1
f 17/5/4 18/6/4 20/7/4 19/8/4
f 21/7/5 22/6/5 24/9/5 23/10/5
f 25/7/6 26/11/6 28/12/6 27/13/6
f 29/7/4 30/14/4 32/15/4 31/16/4
f 3/2/7 1/1/7 17/1/7 19/2/7
f 1/1/8 2/4/8 18/4/8 17/1/8
f 2/4/9 4/3/9 20/3/9 18/4/9
f 4/3/10 3/2/10 19/2/10 20/3/10
f 7/2/11 5/1/11 21/1/11 23/2/11
f 5/1/12 6/4/12 22/4/12 21/1/12
f 6/4/13 8/3/13 24/3/13 22/4/13
f 8/3/14 7/2/14 23/2/14 24/3/14
f 11/2/15 9/1/15 25/1/15 27/2/15
f 9/1/16 10/4/16 26/4/16 25/1/16
f 10/4/17 12/3/17 28/3/17 26/4/17
f 12/3/18 11/2/18 27/2/18 28/3/18
f 15/2/19 13/1/19 29/1/19 31/2/19
f 13/1/20 14/4/20 30/4/20 29/1/20
f 14/4/21 16/3/21 32/3/21 30/4/21
f 16/3/22 15/2/22 31/2/22 32/3/22
