# Blender 4.5.0
# www.blender.org
o Cube.010
v -4.820936 0.083673 0.038751
v -4.820936 0.027198 0.038751
v -4.820936 0.083673 -0.010664
v -4.820936 0.027198 -0.010664
v -3.449764 0.083673 0.038751
v -3.449764 0.027198 0.038751
v -3.449764 0.083673 -0.010665
v -3.449764 0.027198 -0.010665
v -4.873687 -0.037482 2.104792
v -4.780427 -0.037482 2.104792
v -4.873686 -0.037482 2.015634
v -4.780427 -0.037482 2.015634
v -4.873687 0.262217 2.104792
v -4.780427 0.262217 2.104792
v -4.873686 0.262217 2.015634
v -4.780427 0.262217 2.015634
v -4.873686 -0.037482 0.057859
v -4.780427 -0.037482 0.057859
v -4.873686 -0.037482 -0.031299
v -4.780427 -0.037482 -0.031299
v -4.873686 0.262217 0.057859
v -4.780427 0.262217 0.057859
v -4.873686 0.262217 -0.031299
v -4.780427 0.262217 -0.031299
v -3.400209 0.188362 2.084906
v -3.400209 0.131887 2.084906
v -3.400209 0.188362 2.035490
v -3.400209 0.131887 2.035490
v -1.886319 0.188362 2.084906
v -1.886319 0.131887 2.084906
v -1.886319 0.188362 2.035490
v -1.886319 0.131887 2.035490
v -4.820936 0.188362 2.084905
v -4.820936 0.131887 2.084905
v -4.820936 0.188362 2.035490
v -4.820936 0.131887 2.035490
v -3.449764 0.188362 2.084905
v -3.449764 0.131887 2.084905
v -3.449764 0.188362 2.035490
v -3.449764 0.131887 2.035490
v -3.462107 -0.037482 2.104792
v -3.368848 -0.037482 2.104792
v -3.462107 -0.037482 2.015634
v -3.368848 -0.037482 2.015635
v -3.462107 0.262217 2.104792
v -3.368848 0.262217 2.104792
v -3.462107 0.262217 2.015634
v -3.368848 0.262217 2.015634
v -3.400209 0.188362 0.038751
v -3.400209 0.131887 0.038751
v -3.400209 0.188362 -0.010664
v -3.400209 0.131887 -0.010664
v -1.886319 0.188362 0.038751
v -1.886319 0.131887 0.038751
v -1.886319 0.188362 -0.010665
v -1.886319 0.131887 -0.010665
v -4.820936 0.188362 0.038751
v -4.820936 0.131887 0.038751
v -4.820936 0.188362 -0.010664
v -4.820936 0.131887 -0.010664
v -3.449764 0.188362 0.038751
v -3.449764 0.131887 0.038751
v -3.449764 0.188362 -0.010665
v -3.449764 0.131887 -0.010665
v -3.462107 -0.037482 0.058637
v -3.368848 -0.037482 0.058637
v -3.462107 -0.037482 -0.030520
v -3.368848 -0.037482 -0.030520
v -3.462107 0.262217 0.058637
v -3.368848 0.262217 0.058637
v -3.462107 0.262217 -0.030520
v -3.368848 0.262217 -0.030520
v -4.854078 0.188362 0.957005
v -4.854078 0.131887 0.957005
v -4.804662 0.188362 0.957005
v -4.804662 0.131887 0.957005
v -4.854078 0.188362 2.039989
v -4.854078 0.131887 2.039989
v -4.804662 0.188362 2.039989
v -4.804662 0.131887 2.039989
v -4.854078 0.188362 0.010286
v -4.854078 0.131887 0.010286
v -4.804662 0.188362 0.010286
v -4.804662 0.131887 0.010286
v -4.854078 0.188362 1.042446
v -4.854078 0.131887 1.042446
v -4.804662 0.188362 1.042446
v -4.804662 0.131887 1.042446
v -4.875133 -0.037482 1.071446
v -4.781874 -0.037482 1.071446
v -4.875133 -0.037482 0.982289
v -4.781874 -0.037482 0.982289
v -4.875133 0.262217 1.071446
v -4.781874 0.262217 1.071446
v -4.875133 0.262217 0.982289
v -4.781874 0.262217 0.982289
v -3.400209 0.083673 2.084906
v -3.400209 0.027198 2.084906
v -3.400209 0.083673 2.035490
v -3.400209 0.027198 2.035490
v -1.886319 0.083673 2.084906
v -1.886319 0.027198 2.084906
v -1.886319 0.083673 2.035490
v -1.886319 0.027198 2.035490
v -4.820936 0.083673 2.084906
v -4.820936 0.027198 2.084906
v -4.820936 0.083673 2.035490
v -4.820936 0.027198 2.035490
v -3.449764 0.083673 2.084906
v -3.449764 0.027198 2.084906
v -3.449764 0.083673 2.035490
v -3.449764 0.027198 2.035490
v -3.400209 0.083673 0.038751
v -3.400209 0.027198 0.038751
v -3.400209 0.083673 -0.010664
v -3.400209 0.027198 -0.010664
v -1.886319 0.083673 0.038751
v -1.886319 0.027198 0.038751
v -1.886319 0.083673 -0.010665
v -1.886319 0.027198 -0.010665
v -4.854078 0.083673 0.957005
v -4.854078 0.027198 0.957005
v -4.804662 0.083673 0.957005
v -4.804662 0.027198 0.957005
v -4.854078 0.083673 2.039989
v -4.854078 0.027198 2.039989
v -4.804662 0.083673 2.039989
v -4.804662 0.027198 2.039989
v -4.854078 0.083673 0.010286
v -4.854078 0.027198 0.010286
v -4.804662 0.083673 0.010286
v -4.804662 0.027198 0.010286
v -4.854078 0.083673 1.042446
v -4.854078 0.027198 1.042446
v -4.804662 0.083673 1.042446
v -4.804662 0.027198 1.042446
vn -1.0000 -0.0000 -0.0000
vn -0.0000 -0.0000 -1.0000
vn 1.0000 -0.0000 -0.0000
vn -0.0000 -0.0000 1.0000
vn -0.0000 1.0000 -0.0000
vn -0.0000 -1.0000 -0.0000
vt 0.555699 -0.602546
vt 0.555699 -0.701933
vt 0.475275 -0.701933
vt 0.475275 -0.602546
vt 0.387968 0.101057
vt 0.387968 0.908786
vt 0.555511 0.908786
vt 0.555511 0.101057
vt 0.555699 -0.702168
vt 0.555699 -0.801555
vt 0.475275 -0.801555
vt 0.475275 -0.702168
vt 0.362895 1.281372
vt 0.362896 -0.296447
vt 0.634133 -0.296447
vt 0.634133 1.281372
vt 0.589108 0.057875
vt 0.425561 0.057875
vt 0.425561 0.951968
vt 0.589108 0.951968
vt 0.507436 0.903698
vt 0.644690 0.903698
vt 0.644690 0.096302
vt 0.507436 0.096302
s 0
f 1/1/1 3/2/1 4/3/1 2/4/1
f 3/5/2 7/6/2 8/7/2 4/8/2
f 7/9/3 5/10/3 6/11/3 8/12/3
f 5/13/4 1/14/4 2/15/4 6/16/4
f 3/17/5 1/18/5 5/19/5 7/20/5
f 8/21/6 6/22/6 2/23/6 4/24/6
f 9/1/6 11/2/6 12/3/6 10/4/6
f 11/5/2 15/6/2 16/7/2 12/8/2
f 15/9/5 13/10/5 14/11/5 16/12/5
f 13/13/4 9/14/4 10/15/4 14/16/4
f 11/17/1 9/18/1 13/19/1 15/20/1
f 16/21/3 14/22/3 10/23/3 12/24/3
f 17/1/6 19/2/6 20/3/6 18/4/6
f 19/5/2 23/6/2 24/7/2 20/8/2
f 23/9/5 21/10/5 22/11/5 24/12/5
f 21/13/4 17/14/4 18/15/4 22/16/4
f 19/17/1 17/18/1 21/19/1 23/20/1
f 24/21/3 22/22/3 18/23/3 20/24/3
f 25/1/1 27/2/1 28/3/1 26/4/1
f 27/5/2 31/6/2 32/7/2 28/8/2
f 31/9/3 29/10/3 30/11/3 32/12/3
f 29/13/4 25/14/4 26/15/4 30/16/4
f 27/17/5 25/18/5 29/19/5 31/20/5
f 32/21/6 30/22/6 26/23/6 28/24/6
f 33/1/1 35/2/1 36/3/1 34/4/1
f 35/5/2 39/6/2 40/7/2 36/8/2
f 39/9/3 37/10/3 38/11/3 40/12/3
f 37/13/4 33/14/4 34/15/4 38/16/4
f 35/17/5 33/18/5 37/19/5 39/20/5
f 40/21/6 38/22/6 34/23/6 36/24/6
f 41/1/6 43/2/6 44/3/6 42/4/6
f 43/5/2 47/6/2 48/7/2 44/8/2
f 47/9/5 45/10/5 46/11/5 48/12/5
f 45/13/4 41/14/4 42/15/4 46/16/4
f 43/17/1 41/18/1 45/19/1 47/20/1
f 48/21/3 46/22/3 42/23/3 44/24/3
f 49/1/1 51/2/1 52/3/1 50/4/1
f 51/5/2 55/6/2 56/7/2 52/8/2
f 55/9/3 53/10/3 54/11/3 56/12/3
f 53/13/4 49/14/4 50/15/4 54/16/4
f 51/17/5 49/18/5 53/19/5 55/20/5
f 56/21/6 54/22/6 50/23/6 52/24/6
f 57/1/1 59/2/1 60/3/1 58/4/1
f 59/5/2 63/6/2 64/7/2 60/8/2
f 63/9/3 61/10/3 62/11/3 64/12/3
f 61/13/4 57/14/4 58/15/4 62/16/4
f 59/17/5 57/18/5 61/19/5 63/20/5
f 64/21/6 62/22/6 58/23/6 60/24/6
f 65/1/6 67/2/6 68/3/6 66/4/6
f 67/5/2 71/6/2 72/7/2 68/8/2
f 71/9/5 69/10/5 70/11/5 72/12/5
f 69/13/4 65/14/4 66/15/4 70/16/4
f 67/17/1 65/18/1 69/19/1 71/20/1
f 72/21/3 70/22/3 66/23/3 68/24/3
f 73/1/2 75/2/2 76/3/2 74/4/2
f 75/5/3 79/6/3 80/7/3 76/8/3
f 79/9/4 77/10/4 78/11/4 80/12/4
f 77/13/1 73/14/1 74/15/1 78/16/1
f 75/17/5 73/18/5 77/19/5 79/20/5
f 80/21/6 78/22/6 74/23/6 76/24/6
f 81/1/2 83/2/2 84/3/2 82/4/2
f 83/5/3 87/6/3 88/7/3 84/8/3
f 87/9/4 85/10/4 86/11/4 88/12/4
f 85/13/1 81/14/1 82/15/1 86/16/1
f 83/17/5 81/18/5 85/19/5 87/20/5
f 88/21/6 86/22/6 82/23/6 84/24/6
f 89/1/6 91/2/6 92/3/6 90/4/6
f 91/5/2 95/6/2 96/7/2 92/8/2
f 95/9/5 93/10/5 94/11/5 96/12/5
f 93/13/4 89/14/4 90/15/4 94/16/4
f 91/17/1 89/18/1 93/19/1 95/20/1
f 96/21/3 94/22/3 90/23/3 92/24/3
f 97/1/1 99/2/1 100/3/1 98/4/1
f 99/5/2 103/6/2 104/7/2 100/8/2
f 103/9/3 101/10/3 102/11/3 104/12/3
f 101/13/4 97/14/4 98/15/4 102/16/4
f 99/17/5 97/18/5 101/19/5 103/20/5
f 104/21/6 102/22/6 98/23/6 100/24/6
f 105/1/1 107/2/1 108/3/1 106/4/1
f 107/5/2 111/6/2 112/7/2 108/8/2
f 111/9/3 109/10/3 110/11/3 112/12/3
f 109/13/4 105/14/4 106/15/4 110/16/4
f 107/17/5 105/18/5 109/19/5 111/20/5
f 112/21/6 110/22/6 106/23/6 108/24/6
f 113/1/1 115/2/1 116/3/1 114/4/1
f 115/5/2 119/6/2 120/7/2 116/8/2
f 119/9/3 117/10/3 118/11/3 120/12/3
f 117/13/4 113/14/4 114/15/4 118/16/4
f 115/17/5 113/18/5 117/19/5 119/20/5
f 120/21/6 118/22/6 114/23/6 116/24/6
f 121/1/2 123/2/2 124/3/2 122/4/2
f 123/5/3 127/6/3 128/7/3 124/8/3
f 127/9/4 125/10/4 126/11/4 128/12/4
f 125/13/1 121/14/1 122/15/1 126/16/1
f 123/17/5 121/18/5 125/19/5 127/20/5
f 128/21/6 126/22/6 122/23/6 124/24/6
f 129/1/2 131/2/2 132/3/2 130/4/2
f 131/5/3 135/6/3 136/7/3 132/8/3
f 135/9/4 133/10/4 134/11/4 136/12/4
f 133/13/1 129/14/1 130/15/1 134/16/1
f 131/17/5 129/18/5 133/19/5 135/20/5
f 136/21/6 134/22/6 130/23/6 132/24/6
