# Blender 4.5.0
# www.blender.org
o Bookopen_TeaShop
v -0.557036 0.223837 0.666561
v -0.557036 0.214356 0.666561
v -0.346134 0.223837 0.243249
v -0.346134 0.214356 0.243249
v -0.343337 0.214356 0.244642
v -0.289192 0.214356 0.271619
v -0.316265 0.219431 0.258131
v -0.289192 0.223837 0.271619
v -0.343337 0.223837 0.244642
v -0.316265 0.228945 0.258131
v -0.500093 0.214356 0.694931
v -0.554239 0.214356 0.667955
v -0.527166 0.219431 0.681443
v -0.554239 0.223837 0.667955
v -0.500093 0.223837 0.694931
v -0.527166 0.228945 0.681443
v -0.286395 0.214356 0.273012
v -0.497297 0.214356 0.696324
v -0.286395 0.223837 0.273012
v -0.497297 0.223837 0.696324
v -0.806543 0.220960 0.535131
v -0.772484 0.270225 0.552100
v -0.601326 0.220960 0.123229
v -0.567267 0.270225 0.140198
v -0.524324 0.220960 0.675738
v -0.319107 0.220960 0.263836
v -0.789513 0.245593 0.543616
v -0.584296 0.245593 0.131714
v -0.319107 0.235095 0.263836
v -0.524324 0.235095 0.675738
v -0.529962 0.240632 0.672929
v -0.591346 0.267096 0.642346
v -0.542706 0.250574 0.666579
v -0.558847 0.259094 0.658538
v -0.575927 0.264896 0.650028
v -0.386129 0.267096 0.230444
v -0.324745 0.240632 0.261027
v -0.370710 0.264896 0.238126
v -0.353631 0.259094 0.246635
v -0.337490 0.250574 0.254677
v -0.242105 0.220960 0.816344
v -0.276164 0.270225 0.799375
v -0.036888 0.220960 0.404442
v -0.070947 0.270225 0.387473
v -0.259135 0.245593 0.807860
v -0.053918 0.245593 0.395958
v -0.518686 0.240632 0.678547
v -0.457302 0.267096 0.709129
v -0.505941 0.250574 0.684896
v -0.489800 0.259094 0.692938
v -0.472720 0.264896 0.701447
v -0.252085 0.267096 0.297227
v -0.313469 0.240632 0.266645
v -0.267504 0.264896 0.289545
v -0.284584 0.259094 0.281036
v -0.300724 0.250574 0.272994
v -0.801666 0.214356 0.544682
v -0.812570 0.214356 0.523773
v -0.809379 0.214356 0.538766
v -0.813370 0.214356 0.531113
v -0.812570 0.223837 0.523773
v -0.801666 0.223837 0.544682
v -0.813370 0.223837 0.531113
v -0.809379 0.223837 0.538766
v -0.614023 0.214356 0.125259
v -0.590765 0.214356 0.121370
v -0.608646 0.214356 0.120199
v -0.600133 0.214356 0.118776
v -0.590765 0.223837 0.121370
v -0.614023 0.223837 0.125259
v -0.600133 0.223837 0.118776
v -0.608646 0.223837 0.120199
v -0.229408 0.214356 0.814315
v -0.252666 0.214356 0.818204
v -0.234785 0.214356 0.819374
v -0.243298 0.214356 0.820797
v -0.252666 0.223837 0.818204
v -0.229408 0.223837 0.814315
v -0.243298 0.223837 0.820797
v -0.234785 0.223837 0.819374
v -0.041764 0.214356 0.394891
v -0.030861 0.214356 0.415800
v -0.034052 0.214356 0.400807
v -0.030061 0.214356 0.408460
v -0.030861 0.223837 0.415800
v -0.041764 0.223837 0.394891
v -0.030061 0.223837 0.408460
v -0.034052 0.223837 0.400807
vn -0.0743 -0.9965 -0.0370
vn -0.0000 -1.0000 -0.0000
vn -0.4459 -0.0000 0.8951
vn 0.4459 -0.0000 -0.8951
vn -0.0748 0.9965 -0.0373
vn -0.0000 1.0000 -0.0000
vn 0.0748 0.9965 0.0373
vn 0.0743 -0.9965 0.0370
vn -0.7084 0.6113 -0.3529
vn 0.0637 0.9975 0.0317
vn 0.1875 0.9778 0.0934
vn 0.3222 0.9329 0.1605
vn 0.4490 0.8651 0.2237
vn 0.5525 0.7867 0.2753
vn 0.0138 0.9999 0.0069
vn 0.5909 0.7511 0.2944
vn 0.7084 0.6113 0.3529
vn -0.0637 0.9975 -0.0317
vn -0.1875 0.9778 -0.0934
vn -0.3222 0.9329 -0.1605
vn -0.4490 0.8651 -0.2237
vn -0.5525 0.7867 -0.2753
vn -0.0138 0.9999 -0.0069
vn -0.5909 0.7511 -0.2944
vn -0.5297 -0.0000 0.8482
vn -0.7658 -0.0000 0.6431
vn -0.8867 -0.0000 0.4624
vn -0.9941 -0.0000 -0.1084
vn -0.9595 -0.0000 -0.2816
vn 0.3580 -0.0000 -0.9337
vn 0.0522 -0.0000 -0.9986
vn -0.1649 -0.0000 -0.9863
vn -0.6853 -0.0000 -0.7283
vn -0.8027 -0.0000 -0.5964
vn 0.9595 -0.0000 0.2816
vn 0.9941 -0.0000 0.1084
vn 0.8867 -0.0000 -0.4624
vn 0.7658 -0.0000 -0.6431
vn 0.5297 -0.0000 -0.8482
vn -0.3580 -0.0000 0.9337
vn -0.0522 -0.0000 0.9986
vn 0.1649 -0.0000 0.9863
vn 0.6853 -0.0000 0.7283
vn 0.8027 -0.0000 0.5964
vt 0.530367 0.984356
vt 0.526646 0.984356
vt 0.526646 0.748571
vt 0.530367 0.748571
vt 0.955949 0.863168
vt 0.949111 0.863168
vt 0.949111 0.862843
vt 0.955949 0.862843
vt 0.955947 0.978480
vt 0.949109 0.978480
vt 0.949109 0.978156
vt 0.955947 0.978156
vt 0.647268 0.851283
vt 0.647268 0.850622
vt 0.860291 0.850622
vt 0.860291 0.851283
vt 0.860291 0.857768
vt 0.647268 0.857768
vt 0.860291 0.864254
vt 0.647268 0.864254
vt 0.566893 0.748571
vt 0.566893 0.984356
vt 0.603419 0.748571
vt 0.603419 0.984356
vt 0.952288 0.866310
vt 0.945426 0.866310
vt 0.955949 0.869452
vt 0.949111 0.869452
vt 0.952286 0.981622
vt 0.945424 0.981622
vt 0.945431 0.750998
vt 0.952293 0.750998
vt 0.955954 0.754140
vt 0.949115 0.754140
vt 0.955954 0.754464
vt 0.949115 0.754464
vt 0.607141 0.984356
vt 0.607141 0.748571
vt 0.647268 0.864914
vt 0.860291 0.864914
vt 0.955949 0.869776
vt 0.949111 0.869776
vt 0.562519 0.679092
vt 0.562519 0.646832
vt 0.962195 0.646832
vt 0.962195 0.679092
vt 0.738482 0.712486
vt 0.738482 0.645824
vt 0.945763 0.645824
vt 0.945763 0.712486
vt 0.562519 0.657710
vt 0.938078 0.641829
vt 0.962195 0.679092
vt 0.586635 0.641829
vt 0.962195 0.657710
vt 0.562519 0.646832
vt 0.962195 0.646832
vt 0.807449 0.560144
vt 0.807449 0.717509
vt 0.794797 0.717509
vt 0.794797 0.560144
vt 0.780267 0.717509
vt 0.780267 0.560144
vt 0.765737 0.717509
vt 0.765737 0.560144
vt 0.753085 0.717509
vt 0.753085 0.560144
vt 0.954900 0.560144
vt 0.954900 0.717509
vt 0.571270 0.670548
vt 0.590928 0.655373
vt 0.615631 0.642700
vt 0.641617 0.634459
vt 0.664931 0.631903
vt 0.937738 0.638402
vt 0.746975 0.560144
vt 0.746975 0.717509
vt 0.562519 0.679092
vt 0.586976 0.638402
vt 0.859783 0.631903
vt 0.883096 0.634459
vt 0.909083 0.642700
vt 0.933786 0.655373
vt 0.953444 0.670548
vt 0.738482 0.579162
vt 0.945763 0.579162
vt 0.562519 0.641829
vt 0.962195 0.641829
vt 0.938078 0.679092
vt 0.562519 0.663210
vt 0.938078 0.641829
vt 0.686502 0.560144
vt 0.699153 0.560144
vt 0.699153 0.717509
vt 0.686502 0.717509
vt 0.713684 0.560144
vt 0.713684 0.717509
vt 0.728214 0.560144
vt 0.728214 0.717509
vt 0.740865 0.560144
vt 0.740865 0.717509
vt 0.539051 0.717509
vt 0.539051 0.560144
vt 0.562519 0.631903
vt 0.962195 0.631903
vt 0.937738 0.672592
vt 0.664931 0.679092
vt 0.641617 0.676536
vt 0.615631 0.668294
vt 0.590928 0.655621
vt 0.571270 0.640447
vt 0.953444 0.640446
vt 0.933786 0.655621
vt 0.909083 0.668294
vt 0.883096 0.676536
vt 0.859783 0.679092
vt 0.586976 0.672593
vt 0.955950 0.834452
vt 0.949112 0.834452
vt 0.949112 0.833442
vt 0.955950 0.833442
vt 0.949112 0.832546
vt 0.955950 0.832546
vt 0.949112 0.831779
vt 0.955950 0.831779
vt 0.949114 0.782855
vt 0.955953 0.782855
vt 0.955952 0.783865
vt 0.949114 0.783865
vt 0.955952 0.784762
vt 0.949114 0.784762
vt 0.955952 0.785528
vt 0.949114 0.785528
vt 0.949109 0.947091
vt 0.955948 0.947091
vt 0.955948 0.947858
vt 0.949109 0.947858
vt 0.955948 0.948755
vt 0.949109 0.948755
vt 0.955948 0.949765
vt 0.949109 0.949765
vt 0.949110 0.898168
vt 0.955948 0.898168
vt 0.955948 0.899177
vt 0.949110 0.899177
vt 0.955948 0.900074
vt 0.949110 0.900074
vt 0.955948 0.900841
vt 0.949110 0.900841
vt 0.651870 0.927786
vt 0.648750 0.927246
vt 0.646466 0.925769
vt 0.645630 0.923752
vt 0.645630 0.865968
vt 0.858653 0.865968
vt 0.858653 0.923752
vt 0.857817 0.925769
vt 0.855533 0.927246
vt 0.852414 0.927786
vt 0.647268 0.792839
vt 0.648104 0.790821
vt 0.650388 0.789345
vt 0.653507 0.788804
vt 0.854052 0.788804
vt 0.857171 0.789345
vt 0.859455 0.790821
vt 0.860291 0.792839
vt 0.645630 0.851678
vt 0.645630 0.793895
vt 0.646466 0.791877
vt 0.648750 0.790401
vt 0.651870 0.789860
vt 0.852414 0.789860
vt 0.855534 0.790401
vt 0.857817 0.791877
vt 0.858653 0.793895
vt 0.858653 0.851678
vt 0.653507 0.926733
vt 0.650388 0.926192
vt 0.648104 0.924715
vt 0.647268 0.922698
vt 0.860291 0.922698
vt 0.859455 0.924715
vt 0.857171 0.926192
vt 0.854052 0.926733
s 1
f 6/1/1 17/2/2 18/3/2 11/4/1
f 12/5/3 14/6/3 1/7/3 2/8/3
f 6/9/4 8/10/4 19/11/4 17/12/4
f 9/13/5 3/14/6 1/15/6 14/16/5
f 9/13/5 14/16/5 16/17/6 10/18/6
f 10/18/6 16/17/6 15/19/7 8/20/7
f 6/1/1 11/4/1 13/21/2 7/22/2
f 7/22/2 13/21/2 12/23/8 5/24/8
f 14/6/3 12/5/3 13/25/3 16/26/3
f 16/26/3 13/25/3 11/27/3 15/28/3
f 8/10/4 6/9/4 7/29/4 10/30/4
f 10/31/4 7/32/4 5/33/4 9/34/4
f 4/35/4 3/36/4 9/34/4 5/33/4
f 4/37/2 5/24/8 12/23/8 2/38/2
f 19/39/6 8/20/7 15/19/7 20/40/6
f 18/41/3 20/42/3 15/28/3 11/27/3
f 27/43/9 22/44/9 24/45/9 28/46/9
f 23/47/2 26/48/2 25/49/2 21/50/2
f 25/43/3 30/51/3 27/52/3 21/53/3
f 23/43/4 28/54/4 29/55/4 26/53/4
f 21/43/9 27/56/9 28/57/9 23/46/9
f 36/58/10 32/59/10 35/60/11 38/61/11
f 38/61/11 35/60/11 34/62/12 39/63/12
f 39/63/12 34/62/12 33/64/13 40/65/13
f 40/65/13 33/64/13 31/66/14 37/67/14
f 36/58/10 24/68/15 22/69/15 32/59/10
f 30/43/3 31/70/3 33/71/3 34/72/3 35/73/3 32/74/3 22/75/3 27/53/3
f 29/76/16 37/67/14 31/66/14 30/77/16
f 28/78/4 24/79/4 36/80/4 38/81/4 39/82/4 40/83/4 37/84/4 29/46/4
f 45/53/17 46/43/17 44/44/17 42/45/17
f 43/85/2 41/86/2 25/49/2 26/48/2
f 25/87/3 41/88/3 45/89/3 30/90/3
f 43/46/4 26/43/4 29/51/4 46/91/4
f 41/56/17 43/45/17 46/46/17 45/78/17
f 52/92/18 54/93/19 51/94/19 48/95/18
f 54/93/19 55/96/20 50/97/20 51/94/19
f 55/96/20 56/98/21 49/99/21 50/97/20
f 56/98/21 53/100/22 47/101/22 49/99/21
f 52/92/18 48/95/18 42/102/23 44/103/23
f 30/104/3 45/105/3 42/106/3 48/107/3 51/108/3 50/109/3 49/110/3 47/111/3
f 29/76/24 30/77/24 47/101/22 53/100/22
f 46/104/4 29/105/4 53/112/4 56/113/4 55/114/4 54/115/4 52/116/4 44/117/4
f 57/118/25 62/119/25 64/120/26 59/121/26
f 59/121/26 64/120/26 63/122/27 60/123/27
f 60/123/28 63/122/28 61/124/29 58/125/29
f 69/126/30 66/127/30 68/128/31 71/129/31
f 71/129/31 68/128/31 67/130/32 72/131/32
f 72/131/33 67/130/33 65/132/34 70/133/34
f 85/134/35 82/135/35 84/136/36 87/137/36
f 87/137/37 84/136/37 83/138/38 88/139/38
f 88/139/38 83/138/38 81/140/39 86/141/39
f 77/142/40 74/143/40 76/144/41 79/145/41
f 79/145/41 76/144/41 75/146/42 80/147/42
f 80/147/43 75/146/43 73/148/44 78/149/44
f 65/150/2 67/151/2 68/152/2 66/153/2 4/154/2 2/155/2 57/156/2 59/157/2 60/158/2 58/159/2
f 58/125/29 61/124/29 70/133/34 65/132/34
f 2/8/3 1/7/3 62/119/25 57/118/25
f 3/14/6 69/160/6 71/161/6 72/162/6 70/163/6 61/164/6 63/165/6 64/166/6 62/167/6 1/15/6
f 66/127/30 69/126/30 3/36/4 4/35/4
f 17/168/2 81/169/2 83/170/2 84/171/2 82/172/2 73/173/2 75/174/2 76/175/2 74/176/2 18/177/2
f 82/135/35 85/134/35 78/149/44 73/148/44
f 74/143/40 77/142/40 20/42/3 18/41/3
f 85/178/6 87/179/6 88/180/6 86/181/6 19/39/6 20/40/6 77/182/6 79/183/6 80/184/6 78/185/6
f 17/12/4 19/11/4 86/141/39 81/140/39
