# Blender 4.5.0
# www.blender.org
o Shelf_Deco_01
v 2.036400 -0.152739 -0.590068
v 1.166642 -0.152739 -0.590068
v 2.036400 1.070291 -0.590069
v 1.166642 1.070291 -0.590068
v 2.036400 1.070291 -0.531367
v 2.036400 -0.152739 -0.531367
v 1.166642 -0.152739 -0.531366
v 1.166642 1.070291 -0.531366
v 2.022228 0.027730 -0.760713
v 2.022228 -0.001691 -0.760713
v 2.022228 0.027731 -0.298422
v 2.022228 -0.001691 -0.298422
v 1.180814 0.027730 -0.760712
v 1.180814 -0.001691 -0.760712
v 1.180814 0.027731 -0.298421
v 1.180814 -0.001691 -0.298421
v 1.180814 0.226666 -0.298422
v 1.180814 0.197245 -0.298422
v 1.180814 0.226666 -0.760712
v 1.180814 0.197245 -0.760712
v 2.022228 0.226666 -0.298422
v 2.022228 0.197245 -0.298422
v 2.022228 0.226666 -0.760712
v 2.022228 0.197245 -0.760712
v 1.180814 0.425602 -0.298422
v 1.180814 0.396180 -0.298422
v 1.180814 0.425602 -0.760712
v 1.180814 0.396180 -0.760712
v 2.022228 0.425602 -0.298422
v 2.022228 0.396180 -0.298422
v 2.022228 0.425602 -0.760712
v 2.022228 0.396180 -0.760712
v 1.180814 0.624537 -0.298422
v 1.180814 0.595116 -0.298422
v 1.180814 0.624537 -0.760712
v 1.180814 0.595116 -0.760712
v 2.022228 0.624537 -0.298422
v 2.022228 0.595116 -0.298422
v 2.022228 0.624537 -0.760712
v 2.022228 0.595116 -0.760712
v 1.180814 0.823473 -0.298422
v 1.180814 0.794052 -0.298422
v 1.180814 0.823473 -0.760712
v 1.180814 0.794052 -0.760712
v 2.022228 0.823473 -0.298422
v 2.022228 0.794052 -0.298422
v 2.022228 0.823473 -0.760712
v 2.022228 0.794052 -0.760712
v 2.068152 -0.185916 -0.278591
v 1.134891 -0.185916 -0.278591
v 2.068152 -0.185916 -0.780543
v 1.134891 -0.185916 -0.780543
v 2.068152 -0.138294 -0.780543
v 2.068152 -0.138294 -0.278591
v 1.134891 -0.138294 -0.278591
v 1.134891 -0.138293 -0.780543
v 2.022237 -0.034734 -0.780543
v 2.022237 -0.098340 -0.780543
v 2.022237 -0.098339 -0.278592
v 2.022237 -0.034734 -0.278592
v 2.068130 -0.098339 -0.278592
v 2.068130 -0.034733 -0.278592
v 2.068130 -0.034733 -0.780543
v 2.068130 -0.098339 -0.780543
v 2.024008 -0.047620 -0.771262
v 2.024008 -0.085454 -0.771262
v 2.024008 -0.085454 -0.287874
v 2.024008 -0.047619 -0.287874
v 2.066360 -0.085453 -0.287874
v 2.066360 -0.047619 -0.287874
v 2.066359 -0.047619 -0.771262
v 2.066359 -0.085453 -0.771262
v 2.022237 0.141950 -0.780543
v 2.022237 0.078345 -0.780543
v 2.022237 0.078345 -0.278592
v 2.022237 0.141950 -0.278592
v 2.068130 0.078345 -0.278592
v 2.068130 0.174758 -0.319031
v 2.068130 0.174758 -0.740104
v 2.068130 0.078345 -0.780543
v 2.024008 0.129065 -0.771262
v 2.024008 0.091230 -0.771262
v 2.024008 0.091230 -0.287874
v 2.024008 0.129065 -0.287874
v 2.066360 0.091231 -0.287874
v 2.066360 0.129065 -0.287874
v 2.066359 0.129065 -0.771262
v 2.066359 0.091231 -0.771262
v 2.022237 0.741084 -0.780543
v 2.022237 0.677478 -0.780543
v 2.022237 0.677479 -0.278592
v 2.022237 0.741084 -0.278592
v 2.068130 0.644672 -0.319031
v 2.068130 0.773891 -0.319031
v 2.068130 0.773891 -0.740104
v 2.068130 0.644672 -0.740104
v 2.024008 0.728198 -0.771262
v 2.024008 0.690364 -0.771262
v 2.024008 0.690364 -0.287874
v 2.024008 0.728198 -0.287874
v 2.066360 0.690364 -0.287874
v 2.066360 0.728199 -0.287874
v 2.066359 0.728199 -0.771262
v 2.066359 0.690364 -0.771262
v 2.029001 1.053661 -0.764283
v 2.022237 1.040469 -0.780543
v 2.022237 1.040469 -0.278592
v 2.029001 1.053661 -0.294852
v 2.068130 1.007663 -0.319031
v 2.061366 1.053661 -0.294852
v 2.061366 1.053661 -0.764283
v 2.068130 1.007663 -0.740104
v 2.028002 -0.138382 -0.766684
v 2.022237 -0.127139 -0.780543
v 2.062365 -0.138382 -0.766684
v 2.068130 -0.127138 -0.780543
v 2.022237 -0.127139 -0.278592
v 2.028002 -0.138382 -0.292451
v 2.062365 -0.138382 -0.292451
v 2.068130 -0.127138 -0.278592
v 2.068130 0.141951 -0.278592
v 2.068130 0.141951 -0.780543
v 2.068130 0.741084 -0.780543
v 2.068130 0.741085 -0.278592
v 2.068130 0.677479 -0.278592
v 2.068130 0.677479 -0.780543
v 2.068130 1.040470 -0.780543
v 2.068130 1.040470 -0.278592
v 2.063775 0.192437 -0.334873
v 2.063775 0.192437 -0.724262
v 2.063775 0.782687 -0.724262
v 2.063775 0.782687 -0.334873
v 2.063775 0.626992 -0.334873
v 2.063775 0.626992 -0.724262
v 2.063775 0.998868 -0.724262
v 2.063775 0.998868 -0.334873
v 1.134891 1.119226 -0.622587
v 1.135915 1.119226 -0.620125
v 1.135915 1.121223 -0.622587
v 2.067127 1.119226 -0.620125
v 2.068152 1.119226 -0.622587
v 2.067127 1.121223 -0.622587
v 1.134891 1.119226 -0.777675
v 1.135915 1.121223 -0.777675
v 1.135915 1.119226 -0.780137
v 2.068152 1.119226 -0.777675
v 2.067127 1.119226 -0.780137
v 2.067127 1.121223 -0.777675
v 1.134891 1.055661 -0.777675
v 1.135915 1.055661 -0.780137
v 1.135915 1.053663 -0.777675
v 1.134891 1.055661 -0.622587
v 1.135915 1.053663 -0.622587
v 1.135915 1.055661 -0.620125
v 2.067127 1.055661 -0.620125
v 2.067127 1.053663 -0.622587
v 2.068152 1.055661 -0.622587
v 2.068152 1.055661 -0.777675
v 2.067127 1.053663 -0.777675
v 2.067127 1.055661 -0.780137
v 1.134891 1.119226 -0.283150
v 1.135915 1.119226 -0.280688
v 1.135915 1.121223 -0.283150
v 2.067127 1.119226 -0.280688
v 2.068152 1.119226 -0.283150
v 2.067127 1.121223 -0.283150
v 1.134891 1.119226 -0.448254
v 1.135915 1.121223 -0.448254
v 1.135915 1.119226 -0.450716
v 2.068152 1.119226 -0.448254
v 2.067127 1.119226 -0.450716
v 2.067127 1.121223 -0.448254
v 1.134891 1.055661 -0.448254
v 1.135915 1.055661 -0.450716
v 1.135915 1.053663 -0.448254
v 1.134891 1.055661 -0.283150
v 1.135915 1.053663 -0.283150
v 1.135915 1.055661 -0.280688
v 2.067127 1.055661 -0.280688
v 2.067127 1.053663 -0.283150
v 2.068152 1.055661 -0.283150
v 2.068152 1.055661 -0.448254
v 2.067127 1.053663 -0.448254
v 2.067127 1.055661 -0.450716
v 1.134891 1.119226 -0.453393
v 1.135915 1.119226 -0.450931
v 1.135915 1.121223 -0.453393
v 2.067127 1.119226 -0.450931
v 2.068152 1.119226 -0.453393
v 2.067127 1.121223 -0.453393
v 1.134891 1.119226 -0.617552
v 1.135915 1.121223 -0.617552
v 1.135915 1.119226 -0.620015
v 2.068152 1.119226 -0.617552
v 2.067127 1.119226 -0.620015
v 2.067127 1.121223 -0.617552
v 1.134891 1.055661 -0.617552
v 1.135915 1.055661 -0.620015
v 1.135915 1.053663 -0.617552
v 1.134891 1.055661 -0.453393
v 1.135915 1.053663 -0.453393
v 1.135915 1.055661 -0.450931
v 2.067127 1.055661 -0.450931
v 2.067127 1.053663 -0.453393
v 2.068152 1.055661 -0.453393
v 2.068152 1.055661 -0.617552
v 2.067127 1.053663 -0.617552
v 2.067127 1.055661 -0.620015
v 1.180805 -0.034734 -0.278591
v 1.180805 -0.098340 -0.278591
v 1.180805 -0.098339 -0.780542
v 1.180805 -0.034734 -0.780542
v 1.134913 -0.098339 -0.780542
v 1.134913 -0.034733 -0.780542
v 1.134913 -0.034733 -0.278591
v 1.134913 -0.098339 -0.278591
v 1.179035 -0.047620 -0.287872
v 1.179035 -0.085454 -0.287872
v 1.179035 -0.085454 -0.771260
v 1.179035 -0.047619 -0.771260
v 1.136683 -0.085453 -0.771260
v 1.136683 -0.047619 -0.771260
v 1.136683 -0.047619 -0.287872
v 1.136683 -0.085453 -0.287872
v 1.180805 0.141950 -0.278591
v 1.180805 0.078345 -0.278591
v 1.180805 0.078345 -0.780542
v 1.180805 0.141950 -0.780542
v 1.134913 0.078345 -0.780542
v 1.134913 0.174758 -0.740103
v 1.134913 0.174758 -0.319030
v 1.134913 0.078345 -0.278591
v 1.179035 0.129065 -0.287872
v 1.179035 0.091230 -0.287872
v 1.179035 0.091230 -0.771260
v 1.179035 0.129065 -0.771260
v 1.136683 0.091231 -0.771260
v 1.136683 0.129065 -0.771260
v 1.136683 0.129065 -0.287872
v 1.136683 0.091231 -0.287872
v 1.180805 0.741084 -0.278591
v 1.180805 0.677478 -0.278591
v 1.180805 0.677479 -0.780542
v 1.180805 0.741084 -0.780542
v 1.134913 0.644672 -0.740103
v 1.134913 0.773891 -0.740103
v 1.134913 0.773891 -0.319030
v 1.134913 0.644672 -0.319030
v 1.179035 0.728198 -0.287873
v 1.179035 0.690364 -0.287873
v 1.179035 0.690364 -0.771260
v 1.179035 0.728198 -0.771260
v 1.136683 0.690364 -0.771260
v 1.136683 0.728199 -0.771260
v 1.136683 0.728199 -0.287873
v 1.136683 0.690364 -0.287873
v 1.174041 1.053661 -0.294851
v 1.180805 1.040469 -0.278591
v 1.180805 1.040469 -0.780542
v 1.174041 1.053661 -0.764282
v 1.134913 1.007663 -0.740103
v 1.141676 1.053661 -0.764282
v 1.141676 1.053661 -0.294851
v 1.134913 1.007663 -0.319030
v 1.175040 -0.138382 -0.292450
v 1.180805 -0.127139 -0.278591
v 1.140678 -0.138382 -0.292450
v 1.134913 -0.127138 -0.278591
v 1.180805 -0.127139 -0.780542
v 1.175040 -0.138382 -0.766683
v 1.140678 -0.138382 -0.766683
v 1.134913 -0.127138 -0.780542
v 1.134913 0.141951 -0.780542
v 1.134913 0.141951 -0.278591
v 1.134913 0.741084 -0.278591
v 1.134913 0.741085 -0.780542
v 1.134913 0.677479 -0.780542
v 1.134913 0.677479 -0.278591
v 1.134913 1.040470 -0.278591
v 1.134913 1.040470 -0.780542
v 1.139268 0.192437 -0.724261
v 1.139268 0.192437 -0.334872
v 1.139268 0.782687 -0.334872
v 1.139268 0.782687 -0.724261
v 1.139268 0.626992 -0.724261
v 1.139268 0.626992 -0.334872
v 1.139268 0.998868 -0.334872
v 1.139268 0.998868 -0.724261
vn -0.0000 -0.0000 -1.0000
vn -0.0000 -0.0000 1.0000
vn 1.0000 -0.0000 -0.0000
vn -0.0000 1.0000 -0.0000
vn -0.0000 -1.0000 -0.0000
vn -1.0000 -0.0000 -0.0000
vn 0.9907 0.1361 -0.0000
vn -0.0000 0.5845 -0.8114
vn -0.9907 0.1361 -0.0000
vn -0.0000 0.5845 0.8114
vn 0.9907 -0.1361 -0.0000
vn -0.0000 -0.5845 -0.8114
vn -0.0000 -0.5845 0.8114
vn -0.9907 -0.1361 -0.0000
vn 0.8962 -0.4437 -0.0000
vn 0.9642 -0.0000 -0.2651
vn 0.8898 0.4563 -0.0000
vn -0.0000 0.7766 -0.6300
vn -0.0000 0.7766 0.6300
vn -0.8899 0.4562 -0.0000
vn -0.8898 -0.4563 -0.0000
vn -0.0000 -0.7766 -0.6300
vn 0.8899 -0.4562 -0.0000
vn -0.0000 -0.7766 0.6300
vn 0.9642 -0.0000 0.2651
vn 0.8962 0.4437 -0.0000
vn 0.9710 -0.2392 -0.0000
vn 0.9710 0.2392 -0.0000
vn -0.8346 0.4279 0.3470
vn 0.8345 0.4279 0.3472
vn -0.8346 0.4279 -0.3471
vn 0.8345 0.4279 -0.3472
vn -0.8345 -0.4279 -0.3471
vn -0.8345 -0.4279 0.3471
vn 0.8345 -0.4279 0.3472
vn 0.8345 -0.4279 -0.3472
vn -0.0000 0.7765 0.6301
vn -0.0000 0.7765 -0.6301
vn -0.8899 -0.4562 -0.0000
vn -0.0000 -0.7765 0.6301
vn 0.8898 -0.4563 -0.0000
vn -0.0000 -0.7765 -0.6301
vn -0.9233 -0.0000 0.3841
vn -0.9233 -0.0000 -0.3841
vn 0.9233 -0.0000 -0.3841
vn 0.9233 -0.0000 0.3841
vn -0.8346 0.4278 0.3470
vn -0.8346 0.4279 -0.3470
vn 0.8345 0.4279 -0.3471
vn -0.8346 -0.4279 -0.3470
vn -0.9233 -0.0000 -0.3840
vn 0.9233 -0.0000 -0.3840
vn -0.8346 0.4278 -0.3470
vn 0.8345 0.4278 -0.3471
vn 0.8899 0.4563 -0.0000
vn 0.8899 -0.4563 -0.0000
vn -0.8962 -0.4437 -0.0000
vn -0.9642 -0.0000 0.2651
vn -0.8898 0.4563 -0.0000
vn 0.8899 0.4562 -0.0000
vn -0.9642 -0.0000 -0.2651
vn -0.8962 0.4437 -0.0000
vn -0.9710 -0.2392 -0.0000
vn -0.9710 0.2392 -0.0000
vt -0.232895 1.232895
vt -0.232895 -0.232895
vt 1.232895 -0.232895
vt 1.232895 1.232895
vt -0.280000 1.280000
vt 1.280000 1.280000
vt 1.280000 -0.280000
vt -0.280000 -0.280000
vt 0.000000 1.000000
vt 0.000000 0.000000
vt 1.000000 1.000000
vt 1.000000 0.000000
vt -0.685759 0.479960
vt -0.685759 0.594363
vt -0.565102 0.594363
vt -0.565102 0.479960
vt 0.732015 3.099751
vt 0.732014 -2.040391
vt 0.241672 -2.040391
vt 0.241672 3.099751
vt -0.685759 1.094957
vt -0.685759 1.209360
vt -0.565102 1.209360
vt -0.565102 1.094957
vt -2.223779 1.094957
vt -2.223779 0.594363
vt -2.344436 0.594363
vt -2.344436 1.094957
vt 0.521781 -0.207435
vt -0.493820 -0.207435
vt -0.493820 0.803005
vt 0.521781 0.803005
vt 0.972917 1.094957
vt 0.972917 0.594363
vt 0.375730 0.217096
vt 0.468455 0.217096
vt 0.468455 0.366707
vt 0.375730 0.366707
vt 0.468455 0.516317
vt 0.375730 0.516317
vt 0.468455 0.665928
vt 0.375730 0.665928
vt 0.343536 -6.465127
vt 0.741806 -6.465127
vt 0.741806 7.626692
vt 0.343536 7.626692
vt -0.530491 1.367557
vt -0.530491 0.039643
vt 0.797422 0.039643
vt 0.797422 1.367557
vt -0.201857 1.069302
vt -0.201857 -0.037102
vt 0.904547 -0.037102
vt 0.904547 1.069302
vt 0.309244 0.179519
vt 0.469831 0.179519
vt 0.469831 0.340106
vt 0.309244 0.340106
vt 0.469831 0.500692
vt 0.309244 0.500692
vt 0.469831 0.661279
vt 0.309244 0.661279
vt 0.227706 -1.797587
vt 0.551368 -1.797587
vt 0.551368 3.280733
vt 0.227706 3.280733
vt -0.439472 0.853357
vt -0.439472 -0.539907
vt 0.953792 -0.539907
vt 0.953792 0.853357
vt -0.151232 0.775185
vt -0.151232 -0.164860
vt 0.788812 -0.164860
vt 0.788812 0.775185
vt 1.389320 -0.785760
vt 1.685760 -0.785760
vt 1.685760 -0.489320
vt 1.389320 -0.489320
vt 1.685760 -0.192880
vt 1.389320 -0.192880
vt 1.685760 0.103560
vt 1.389320 0.103560
vt 0.608581 -2.264487
vt 0.960421 -2.264487
vt 0.960421 3.260165
vt 0.608581 3.260165
vt 0.873928 -1.171011
vt 0.873928 -0.138860
vt -0.158223 -0.138860
vt -0.158223 -1.171011
vt 0.873928 0.893291
vt 0.873928 1.925441
vt -0.158223 1.925441
vt -0.158223 0.893291
vt 0.418389 0.956950
vt 0.592559 0.956950
vt 0.592559 0.746100
vt 0.418389 0.746100
vt 0.592559 0.535249
vt 0.418389 0.535249
vt 0.592559 0.324398
vt 0.418389 0.324398
vt 0.493802 2.564770
vt 0.773067 2.564770
vt 0.773067 -1.752785
vt 0.493802 -1.752785
vt 0.768499 -0.577371
vt 0.768499 -0.086814
vt 0.277941 -0.086814
vt 0.277941 -0.577371
vt 0.768499 0.403744
vt 0.768499 0.894302
vt 0.277941 0.894301
vt 0.277941 0.403744
vt -0.982199 0.400000
vt -0.982199 -0.785760
vt 0.203560 -0.785760
vt 0.203560 0.400000
vt 0.539917 -0.857155
vt 0.747197 -0.857155
vt 0.747197 -0.627866
vt 0.539917 -0.627866
vt 0.539917 0.626314
vt 0.747197 0.626314
vt 0.747197 1.651206
vt 0.539917 1.651206
vt 0.747197 0.397026
vt 0.539917 0.397026
vt 0.774642 -1.089441
vt 0.774642 -1.014367
vt 0.541320 -1.014366
vt 0.541320 -1.089439
vt 1.135408 -1.464573
vt 1.135768 -1.370898
vt -0.188763 -1.365808
vt -0.189123 -1.459483
vt 1.009569 -1.089441
vt 1.009569 -1.014367
vt 0.776247 -1.014367
vt 0.776246 -1.089441
vt 1.498573 1.064091
vt 1.321195 1.068415
vt 1.318916 0.087034
vt 1.493853 0.091230
vt -0.164104 -1.322511
vt 1.111443 -1.327414
vt 0.550320 -0.975462
vt 0.765642 -0.975463
vt -0.502168 -0.979593
vt -0.521797 -1.014367
vt 0.539714 -1.014367
vt 0.520086 -0.979593
vt 0.785247 -0.975463
vt 1.000569 -0.975463
vt -0.187957 -1.155964
vt -0.163631 -1.199449
vt 1.111916 -1.204351
vt 1.136575 -1.161054
vt 0.541320 -0.837932
vt 0.550320 -0.876836
vt 0.765642 -0.876838
vt 0.774642 -0.837934
vt 0.776248 -0.837934
vt 0.785247 -0.876838
vt 1.000570 -0.876838
vt 1.009570 -0.837934
vt 0.520086 -0.880967
vt -0.502168 -0.880968
vt -0.521797 -0.846193
vt 0.539714 -0.846193
vt -0.161885 -0.744860
vt -0.186544 -0.788156
vt 1.137988 -0.793247
vt 1.113663 -0.749762
vt 0.550320 -0.504258
vt 0.541320 -0.543162
vt 0.774642 -0.543164
vt 0.765642 -0.504260
vt -0.502168 -0.516649
vt -0.521797 -0.551423
vt 0.539714 -0.551423
vt 0.520086 -0.516649
vt 0.785250 -0.504260
vt 0.776250 -0.543164
vt 1.009572 -0.543164
vt 1.000572 -0.504260
vt -0.185737 -0.578312
vt -0.161412 -0.621797
vt 1.114136 -0.626699
vt 1.138794 -0.583402
vt 0.541320 -0.366728
vt 0.550320 -0.405633
vt 0.765642 -0.405634
vt 0.774642 -0.366730
vt 0.776251 -0.366730
vt 0.785250 -0.405634
vt 1.000573 -0.405634
vt 1.009573 -0.366730
vt 0.520086 -0.418023
vt -0.502168 -0.418023
vt -0.521797 -0.383249
vt 0.539715 -0.383249
vt -0.164700 1.199826
vt -0.189358 1.156203
vt 1.142717 1.155406
vt 1.118112 1.199058
vt 0.550320 1.068172
vt 0.541320 1.029268
vt 0.774642 1.029267
vt 0.765642 1.068171
vt -0.502168 1.047522
vt -0.521796 1.012747
vt 0.539715 1.012747
vt 0.520087 1.047522
vt 0.785259 1.068171
vt 0.776259 1.029267
vt 1.009581 1.029267
vt 1.000582 1.068171
vt -0.189231 1.367242
vt -0.164626 1.323590
vt 1.118186 1.322821
vt 1.142844 1.366444
vt 0.541320 1.205702
vt 0.550320 1.166798
vt 0.765642 1.166796
vt 0.774642 1.205700
vt 0.776260 1.205701
vt 0.785260 1.166796
vt 1.000582 1.166797
vt 1.009582 1.205701
vt 0.520087 1.146147
vt -0.502168 1.146147
vt -0.521796 1.180921
vt 0.539715 1.180921
vt -0.083204 2.255040
vt -0.031572 2.215824
vt 0.985006 2.208394
vt 1.037575 2.249386
vt 0.774642 1.986128
vt 0.541320 1.986130
vt -0.080677 1.475024
vt -0.031179 1.515256
vt 1.009587 1.986128
vt 0.776265 1.986129
vt 0.539715 1.961349
vt -0.521796 1.961349
vt 1.276188 1.114128
vt 1.227870 1.061175
vt 1.224981 0.101697
vt 1.275635 0.048852
vt 1.011192 1.114765
vt 1.061951 1.064552
vt 1.059544 0.095179
vt 1.011191 0.044946
vt 1.534788 0.046934
vt 1.542339 1.109793
vt 1.277792 1.111847
vt 1.277792 0.044946
vt 0.539714 -1.089441
vt -0.521797 -1.089441
vt -0.080084 -0.473473
vt 1.033849 -0.476969
vt 1.035895 1.471733
vt 1.035735 1.048413
vt -0.084601 1.051201
vt 1.141993 2.352813
vt -0.189358 2.362458
vt 1.011192 0.043342
vt 1.011192 -1.089441
vt 1.834658 -1.089441
vt 1.834658 0.043342
vt 1.704692 1.246335
vt 1.704692 1.809869
vt 0.881225 1.809869
vt 0.881225 1.246335
vt 0.984760 0.983402
vt 0.985327 -0.414799
vt 0.987560 1.509918
vt -0.031054 -0.409495
vt -0.034189 0.988111
vt -0.191016 -0.874911
vt -0.069248 -0.874911
vt -0.069248 1.874368
vt -0.191016 1.874368
vt 0.550798 -0.874911
vt 0.550798 1.874368
vt 0.309776 1.874368
vt 0.309776 -0.874911
vt -0.063837 -0.874911
vt 0.177185 -0.874911
vt 0.177185 1.874368
vt -0.063837 1.874368
vt 0.338708 1.912988
vt 0.338708 2.034755
vt 0.148253 2.034755
vt 0.148253 1.912988
vt 0.304364 1.874368
vt 0.182597 1.874368
vt 0.182597 -0.874911
vt 0.304365 -0.874911
vt -0.163741 -0.975117
vt -0.164823 -0.953975
vt -0.188914 -0.959486
vt -0.164824 1.954578
vt -0.163741 1.975720
vt -0.188914 1.960089
vt 0.261968 -0.862611
vt 0.221542 -0.874503
vt 0.285776 -0.873320
vt 0.261968 1.863214
vt 0.285776 1.873922
vt 0.221542 1.875106
vt 0.224991 -0.861835
vt 0.201200 -0.874464
vt 0.270413 -0.877745
vt 0.105427 -0.916996
vt 0.019894 -0.904258
vt 0.050362 -0.928752
vt 0.050362 1.929354
vt 0.019894 1.904861
vt 0.105427 1.917599
vt 0.224991 1.862438
vt 0.270413 1.878348
vt 0.201200 1.875067
vt 0.304364 -0.879187
vt 0.304364 -1.069643
vt 0.309776 -1.069643
vt 0.309776 -0.879187
vt -0.196428 1.874368
vt -0.196428 -0.874911
vt 0.304364 2.069099
vt 0.304365 1.878644
vt 0.309776 1.878644
vt 0.309776 2.069099
vt -0.063837 -0.879187
vt 0.177185 -0.879187
vt 0.177185 2.069099
vt 0.177185 1.878644
vt 0.182597 1.878644
vt 0.182597 2.069099
vt -0.191016 -0.879187
vt -0.069248 -0.879187
vt 0.182597 -0.879187
vt -0.069248 1.878644
vt -0.191016 1.878644
vt 0.182597 -1.069643
vt 0.491618 0.002318
vt 0.316635 0.002318
vt 0.316635 -0.975130
vt 0.491618 -0.975130
vt 0.308859 0.039568
vt 0.308859 1.017016
vt -0.059860 1.017016
vt -0.059860 0.039568
vt 0.308859 0.002318
vt -0.059860 0.002318
vt -0.059860 -0.975130
vt 0.308859 -0.975130
vt -5.443799 0.038048
vt -5.443799 0.003838
vt -5.075081 0.003838
vt -5.075081 0.038048
vt -5.067305 0.038048
vt -5.067305 0.003838
vt -0.067637 0.003838
vt -0.067637 0.038048
vt 0.227762 0.000482
vt 0.233201 0.037482
vt 0.216098 0.033481
vt 0.400471 0.943977
vt 0.410318 0.983442
vt 0.385898 0.953346
vt 0.426770 0.345330
vt 0.424379 0.390135
vt 0.406149 0.350825
vt 0.426945 0.739197
vt 0.427704 0.739715
vt 0.433248 0.727290
vt 0.371607 0.301297
vt 0.365391 0.306576
vt 0.356500 0.271307
vt 0.294353 0.083367
vt 0.284298 0.116684
vt 0.275948 0.081872
vt 0.425268 0.877458
vt 0.416927 0.858047
vt 0.432294 0.849520
vt 0.419793 0.762306
vt 0.424435 0.772348
vt 0.417837 0.760674
vt -0.059860 0.038048
vt 0.308859 0.038048
vt 0.499394 -0.975130
vt 0.499394 0.002318
vt 0.308859 1.018536
vt -0.059860 1.018536
vt -0.067637 0.039568
vt -5.067305 0.039568
vt 0.308859 0.003838
vt -0.059860 0.003838
vt -0.059860 -0.976650
vt 0.308859 -0.976650
vt -5.067305 0.002318
vt -0.067637 0.002318
vt 0.491618 0.003838
vt 0.316635 0.003838
vt 0.316635 -0.976650
vt 0.491618 -0.976650
vt 0.004169 0.007826
vt 0.038284 0.017197
vt 0.038284 0.982803
vt 0.004169 0.992173
vt 0.196587 0.098893
vt 0.196587 0.969298
vt -0.021992 0.969298
vt -0.021992 0.098893
vt 0.196587 1.872862
vt -0.021992 1.872862
vt -0.021992 1.002468
vt 0.196587 1.002468
vt 0.196587 0.970652
vt 0.196587 1.001114
vt -0.021992 1.001114
vt -0.021992 0.970652
vt 0.076178 0.963239
vt 0.063642 0.963691
vt 0.063642 0.036309
vt 0.076178 0.036760
vt 0.004380 0.000116
vt 0.000116 0.005805
vt 0.004380 0.999884
vt 0.000116 0.994195
vt 0.072352 0.040557
vt 0.065500 0.036492
vt 0.072352 0.959442
vt 0.065500 0.963508
vt 0.067490 0.040763
vt 0.075143 0.035243
vt 0.047435 0.021652
vt 0.033096 0.026000
vt 0.033096 0.974000
vt 0.047435 0.978348
vt 0.067490 0.959237
vt 0.075143 0.964757
vt -0.021992 0.097538
vt 0.196587 0.097538
vt -0.021992 0.065722
vt 0.196587 0.065722
vt 0.196587 0.067075
vt -0.021992 0.067075
s 1
f 1/1/1 2/2/1 4/3/1 3/4/1
f 6/5/2 5/6/2 8/7/2 7/8/2
f 3/9/3 5/9/3 6/10/3 1/10/3
f 4/11/4 8/11/4 5/9/4 3/9/4
f 1/10/5 6/10/5 7/12/5 2/12/5
f 2/12/6 7/12/6 8/11/6 4/11/6
f 9/13/3 11/14/3 12/15/3 10/16/3
f 11/17/2 15/18/2 16/19/2 12/20/2
f 15/21/6 13/22/6 14/23/6 16/24/6
f 13/25/1 9/26/1 10/27/1 14/28/1
f 11/29/4 9/30/4 13/31/4 15/32/4
f 16/24/5 14/33/5 10/34/5 12/15/5
f 17/35/3 18/36/3 20/37/3 19/38/3
f 19/38/2 20/37/2 24/39/2 23/40/2
f 23/40/6 24/39/6 22/41/6 21/42/6
f 21/43/1 22/44/1 18/45/1 17/46/1
f 19/47/5 23/48/5 21/49/5 17/50/5
f 24/51/4 20/52/4 18/53/4 22/54/4
f 25/55/3 26/56/3 28/57/3 27/58/3
f 27/58/2 28/57/2 32/59/2 31/60/2
f 31/60/6 32/59/6 30/61/6 29/62/6
f 29/63/1 30/64/1 26/65/1 25/66/1
f 27/67/5 31/68/5 29/69/5 25/70/5
f 32/71/4 28/72/4 26/73/4 30/74/4
f 33/75/3 34/76/3 36/77/3 35/78/3
f 35/78/2 36/77/2 40/79/2 39/80/2
f 39/80/6 40/79/6 38/81/6 37/82/6
f 37/83/1 38/84/1 34/85/1 33/86/1
f 35/87/5 39/88/5 37/89/5 33/90/5
f 40/91/4 36/92/4 34/93/4 38/94/4
f 41/95/3 42/96/3 44/97/3 43/98/3
f 43/98/2 44/97/2 48/99/2 47/100/2
f 47/100/6 48/99/6 46/101/6 45/102/6
f 45/103/1 46/104/1 42/105/1 41/106/1
f 43/107/5 47/108/5 45/109/5 41/110/5
f 48/111/4 44/112/4 42/113/4 46/114/4
f 49/115/5 50/116/5 52/117/5 51/118/5
f 54/115/4 53/118/4 56/117/4 55/116/4
f 51/119/3 53/120/3 54/121/3 49/122/3
f 52/123/1 56/124/1 53/125/1 51/126/1
f 49/122/2 54/121/2 55/127/2 50/128/2
f 50/128/6 55/127/6 56/124/6 52/123/6
f 114/129/1 58/130/1 64/131/1 116/132/1
f 116/133/3 64/134/3 61/135/3 120/136/3
f 120/137/2 61/138/2 59/139/2 117/140/2
f 113/141/5 115/142/5 119/143/5 118/144/5
f 69/145/7 61/135/7 64/134/7 72/146/7
f 72/147/8 64/131/8 58/130/8 66/148/8
f 66/149/9 58/150/9 59/151/9 67/152/9
f 67/153/10 59/139/10 61/138/10 69/154/10
f 62/155/11 70/156/11 71/157/11 63/158/11
f 63/159/12 71/160/12 65/161/12 57/162/12
f 60/163/13 68/164/13 70/165/13 62/166/13
f 72/146/3 71/157/3 70/156/3 69/145/3
f 66/148/1 65/161/1 71/160/1 72/147/1
f 69/154/2 70/165/2 68/164/2 67/153/2
f 67/152/6 68/167/6 65/168/6 66/149/6
f 57/169/14 65/168/14 68/167/14 60/170/14
f 85/171/7 77/172/7 80/173/7 88/174/7
f 88/175/8 80/176/8 74/177/8 82/178/8
f 82/179/9 74/180/9 75/181/9 83/182/9
f 83/183/10 75/184/10 77/185/10 85/186/10
f 121/187/11 86/188/11 87/189/11 122/190/11
f 122/191/12 87/192/12 81/193/12 73/194/12
f 76/195/13 84/196/13 86/197/13 121/198/13
f 88/174/3 87/189/3 86/188/3 85/171/3
f 82/178/1 81/193/1 87/192/1 88/175/1
f 85/186/2 86/197/2 84/196/2 83/183/2
f 83/182/6 84/199/6 81/200/6 82/179/6
f 73/201/14 81/200/14 84/199/14 76/202/14
f 101/203/7 125/204/7 126/205/7 104/206/7
f 104/207/8 126/208/8 90/209/8 98/210/8
f 98/211/9 90/212/9 91/213/9 99/214/9
f 99/215/10 91/216/10 125/217/10 101/218/10
f 124/219/11 102/220/11 103/221/11 123/222/11
f 123/223/12 103/224/12 97/225/12 89/226/12
f 92/227/13 100/228/13 102/229/13 124/230/13
f 104/206/3 103/221/3 102/220/3 101/203/3
f 98/210/1 97/225/1 103/224/1 104/207/1
f 101/218/2 102/229/2 100/228/2 99/215/2
f 99/214/6 100/231/6 97/232/6 98/211/6
f 89/233/14 97/232/14 100/231/14 92/234/14
f 80/176/1 63/159/1 57/162/1 74/177/1
f 74/180/6 57/169/6 60/170/6 75/181/6
f 75/184/2 60/163/2 62/166/2 77/185/2
f 77/172/3 62/155/3 63/158/3 80/173/3
f 126/208/1 122/191/1 73/194/1 90/209/1
f 90/212/6 73/201/6 76/202/6 91/213/6
f 91/216/2 76/195/2 121/198/2 125/217/2
f 109/235/15 136/236/15 135/237/15 112/238/15
f 89/226/1 106/239/1 127/240/1 123/223/1
f 94/241/16 132/242/16 136/236/16 109/235/16
f 124/230/2 128/243/2 107/244/2 92/227/2
f 92/234/6 107/245/6 106/246/6 89/233/6
f 127/247/17 111/248/17 110/249/17 128/250/17
f 106/251/18 105/252/18 111/248/18 127/247/18
f 128/250/19 110/249/19 108/253/19 107/254/19
f 107/254/20 108/253/20 105/252/20 106/251/20
f 111/248/4 105/252/4 108/253/4 110/249/4
f 118/144/21 117/255/21 114/256/21 113/141/21
f 113/141/22 114/256/22 116/257/22 115/142/22
f 115/142/23 116/257/23 120/258/23 119/143/23
f 119/143/24 120/258/24 117/255/24 118/144/24
f 117/259/6 59/151/6 58/150/6 114/260/6
f 78/261/3 121/187/3 122/190/3 79/262/3
f 94/241/3 124/219/3 123/222/3 95/263/3
f 96/264/3 126/205/3 125/204/3 93/265/3
f 79/262/3 122/190/3 126/205/3 96/264/3
f 93/265/3 125/204/3 121/187/3 78/261/3
f 112/238/3 127/266/3 128/267/3 109/235/3
f 95/263/3 123/222/3 127/266/3 112/238/3
f 109/235/3 128/267/3 124/219/3 94/241/3
f 133/268/3 129/269/3 130/270/3 134/271/3
f 131/272/3 135/273/3 136/274/3 132/275/3
f 96/264/25 134/276/25 130/277/25 79/262/25
f 95/263/26 131/278/26 132/242/26 94/241/26
f 112/238/25 135/237/25 131/278/25 95/263/25
f 78/261/16 129/279/16 133/280/16 93/265/16
f 93/265/27 133/280/27 134/276/27 96/264/27
f 79/262/28 130/277/28 129/279/28 78/261/28
f 138/281/2 154/282/2 155/283/2 140/284/2
f 139/285/4 142/286/4 148/287/4 144/288/4
f 153/289/5 151/290/5 159/291/5 156/292/5
f 141/293/3 157/294/3 158/295/3 146/296/3
f 147/297/1 160/298/1 150/299/1 145/300/1
f 137/301/29 138/302/29 139/303/29
f 140/304/30 141/305/30 142/306/30
f 143/307/31 144/308/31 145/309/31
f 146/310/32 147/311/32 148/312/32
f 149/313/33 150/314/33 151/315/33
f 152/316/34 153/317/34 154/318/34
f 155/319/35 156/320/35 157/321/35
f 158/322/36 159/323/36 160/324/36
f 143/325/20 137/326/20 139/327/20 144/328/20
f 138/281/37 140/284/37 142/329/37 139/330/37
f 141/331/17 146/332/17 148/333/17 142/334/17
f 147/297/38 145/300/38 144/288/38 148/287/38
f 151/290/39 153/289/39 152/335/39 149/336/39
f 153/289/40 156/292/40 155/283/40 154/282/40
f 156/337/41 159/338/41 158/339/41 157/340/41
f 159/291/42 151/290/42 150/299/42 160/298/42
f 137/341/43 152/342/43 154/282/43 138/281/43
f 149/343/44 143/325/44 145/300/44 150/299/44
f 160/298/45 147/297/45 146/332/45 158/339/45
f 140/284/46 155/283/46 157/344/46 141/345/46
f 143/325/6 149/343/6 152/346/6 137/326/6
f 162/347/2 178/348/2 179/349/2 164/350/2
f 163/351/4 166/352/4 172/353/4 168/354/4
f 177/355/5 175/356/5 183/357/5 180/358/5
f 165/359/3 181/360/3 182/361/3 170/362/3
f 171/363/1 184/364/1 174/365/1 169/366/1
f 161/367/47 162/368/47 163/369/47
f 164/370/30 165/371/30 166/372/30
f 167/373/48 168/374/48 169/375/48
f 170/376/49 171/377/49 172/378/49
f 173/379/50 174/380/50 175/381/50
f 176/382/34 177/383/34 178/384/34
f 179/385/35 180/386/35 181/387/35
f 182/388/36 183/389/36 184/390/36
f 167/391/20 161/392/20 163/351/20 168/354/20
f 162/347/37 164/350/37 166/393/37 163/394/37
f 165/395/17 170/396/17 172/353/17 166/352/17
f 171/363/18 169/366/18 168/397/18 172/398/18
f 175/356/39 177/355/39 176/399/39 173/400/39
f 177/355/40 180/358/40 179/349/40 178/348/40
f 180/358/41 183/357/41 182/401/41 181/402/41
f 183/403/22 175/404/22 174/365/22 184/364/22
f 161/405/43 176/406/43 178/348/43 162/347/43
f 173/400/51 167/391/51 169/366/51 174/365/51
f 184/364/52 171/363/52 170/362/52 182/361/52
f 164/350/46 179/349/46 181/407/46 165/408/46
f 167/391/6 173/400/6 176/399/6 161/392/6
f 186/409/2 202/410/2 203/411/2 188/412/2
f 187/413/4 190/414/4 196/415/4 192/416/4
f 201/417/5 199/418/5 207/419/5 204/420/5
f 189/421/3 205/422/3 206/423/3 194/424/3
f 195/425/1 208/426/1 198/427/1 193/428/1
f 185/429/47 186/409/47 187/430/47
f 188/412/30 189/431/30 190/432/30
f 191/433/53 192/434/53 193/428/53
f 194/435/54 195/425/54 196/436/54
f 197/437/50 198/427/50 199/438/50
f 200/439/34 201/440/34 202/410/34
f 203/411/35 204/441/35 205/442/35
f 206/443/36 207/444/36 208/426/36
f 191/445/20 185/446/20 187/413/20 192/416/20
f 186/409/37 188/412/37 190/432/37 187/430/37
f 189/421/55 194/424/55 196/415/55 190/414/55
f 195/425/18 193/428/18 192/434/18 196/436/18
f 199/447/39 201/448/39 200/449/39 197/450/39
f 201/440/40 204/441/40 203/411/40 202/410/40
f 204/420/56 207/419/56 206/423/56 205/422/56
f 207/444/22 199/438/22 198/427/22 208/426/22
f 185/429/43 200/439/43 202/410/43 186/409/43
f 197/437/44 191/433/44 193/428/44 198/427/44
f 208/426/45 195/425/45 194/435/45 206/443/45
f 188/412/46 203/411/46 205/442/46 189/431/46
f 191/445/6 197/450/6 200/449/6 185/446/6
f 266/129/2 210/130/2 216/131/2 268/132/2
f 268/133/6 216/134/6 213/135/6 272/136/6
f 272/137/1 213/138/1 211/139/1 269/140/1
f 265/141/5 267/142/5 271/143/5 270/144/5
f 221/145/9 213/135/9 216/134/9 224/146/9
f 224/147/10 216/131/10 210/130/10 218/148/10
f 218/149/7 210/150/7 211/151/7 219/152/7
f 219/153/8 211/139/8 213/138/8 221/154/8
f 214/155/14 222/156/14 223/157/14 215/158/14
f 215/159/13 223/160/13 217/161/13 209/162/13
f 212/163/12 220/164/12 222/165/12 214/166/12
f 224/146/6 223/157/6 222/156/6 221/145/6
f 218/148/2 217/161/2 223/160/2 224/147/2
f 221/154/1 222/165/1 220/164/1 219/153/1
f 219/152/3 220/167/3 217/168/3 218/149/3
f 209/169/11 217/168/11 220/167/11 212/170/11
f 237/171/9 229/172/9 232/173/9 240/174/9
f 240/175/10 232/176/10 226/177/10 234/178/10
f 234/179/7 226/180/7 227/181/7 235/182/7
f 235/183/8 227/184/8 229/185/8 237/186/8
f 273/187/14 238/188/14 239/189/14 274/190/14
f 274/191/13 239/192/13 233/193/13 225/194/13
f 228/195/12 236/196/12 238/197/12 273/198/12
f 240/174/6 239/189/6 238/188/6 237/171/6
f 234/178/2 233/193/2 239/192/2 240/175/2
f 237/186/1 238/197/1 236/196/1 235/183/1
f 235/182/3 236/199/3 233/200/3 234/179/3
f 225/201/11 233/200/11 236/199/11 228/202/11
f 253/203/9 277/204/9 278/205/9 256/206/9
f 256/207/10 278/208/10 242/209/10 250/210/10
f 250/211/7 242/212/7 243/213/7 251/214/7
f 251/215/8 243/216/8 277/217/8 253/218/8
f 276/219/14 254/220/14 255/221/14 275/222/14
f 275/223/13 255/224/13 249/225/13 241/226/13
f 244/227/12 252/228/12 254/229/12 276/230/12
f 256/206/6 255/221/6 254/220/6 253/203/6
f 250/210/2 249/225/2 255/224/2 256/207/2
f 253/218/1 254/229/1 252/228/1 251/215/1
f 251/214/3 252/231/3 249/232/3 250/211/3
f 241/233/11 249/232/11 252/231/11 244/234/11
f 232/176/2 215/159/2 209/162/2 226/177/2
f 226/180/3 209/169/3 212/170/3 227/181/3
f 227/184/1 212/163/1 214/166/1 229/185/1
f 229/172/6 214/155/6 215/158/6 232/173/6
f 278/208/2 274/191/2 225/194/2 242/209/2
f 242/212/3 225/201/3 228/202/3 243/213/3
f 243/216/1 228/195/1 273/198/1 277/217/1
f 261/235/57 288/236/57 287/237/57 264/238/57
f 241/226/2 258/239/2 279/240/2 275/223/2
f 246/241/58 284/242/58 288/236/58 261/235/58
f 276/230/1 280/243/1 259/244/1 244/227/1
f 244/234/3 259/245/3 258/246/3 241/233/3
f 279/247/59 263/248/59 262/249/59 280/250/59
f 258/251/19 257/252/19 263/248/19 279/247/19
f 280/250/18 262/249/18 260/253/18 259/254/18
f 259/254/60 260/253/60 257/252/60 258/251/60
f 263/248/4 257/252/4 260/253/4 262/249/4
f 270/144/23 269/255/23 266/256/23 265/141/23
f 265/141/24 266/256/24 268/257/24 267/142/24
f 267/142/39 268/257/39 272/258/39 271/143/39
f 271/143/22 272/258/22 269/255/22 270/144/22
f 269/259/3 211/151/3 210/150/3 266/260/3
f 230/261/6 273/187/6 274/190/6 231/262/6
f 246/241/6 276/219/6 275/222/6 247/263/6
f 248/264/6 278/205/6 277/204/6 245/265/6
f 231/262/6 274/190/6 278/205/6 248/264/6
f 245/265/6 277/204/6 273/187/6 230/261/6
f 264/238/6 279/266/6 280/267/6 261/235/6
f 247/263/6 275/222/6 279/266/6 264/238/6
f 261/235/6 280/267/6 276/219/6 246/241/6
f 285/268/6 281/269/6 282/270/6 286/271/6
f 283/272/6 287/273/6 288/274/6 284/275/6
f 248/264/61 286/276/61 282/277/61 231/262/61
f 247/263/62 283/278/62 284/242/62 246/241/62
f 264/238/61 287/237/61 283/278/61 247/263/61
f 230/261/58 281/279/58 285/280/58 245/265/58
f 245/265/63 285/280/63 286/276/63 248/264/63
f 231/262/64 282/277/64 281/279/64 230/261/64
